<svg xmlns="http://www.w3.org/2000/svg" xmlns:xlink="http://www.w3.org/1999/xlink" width="500" zoomAndPan="magnify"
     viewBox="0 0 375 374.999991" height="500" preserveAspectRatio="xMidYMid meet" version="1.0">
    <defs>
        <g/>
        <clipPath id="732a2dca12">
            <path d="M 86 71.148438 L 366.441406 71.148438 L 366.441406 356.199219 L 86 356.199219 Z M 86 71.148438 "
                  clip-rule="nonzero"/>
        </clipPath>
        <clipPath id="baaafeb323">
            <path d="M 31 151 L 109.605469 151 L 109.605469 278.75 L 31 278.75 Z M 31 151 " clip-rule="nonzero"/>
        </clipPath>
        <clipPath id="cd698d3675">
            <path d="M 123.546875 243.839844 L 154.296875 243.839844 L 154.296875 262.589844 L 123.546875 262.589844 Z M 123.546875 243.839844 "
                  clip-rule="nonzero"/>
        </clipPath>
        <clipPath id="da5537accc">
            <path d="M 94.597656 243.839844 L 125.347656 243.839844 L 125.347656 262.589844 L 94.597656 262.589844 Z M 94.597656 243.839844 "
                  clip-rule="nonzero"/>
        </clipPath>
    </defs>
    <g clip-path="url(#732a2dca12)">
        <path fill="#f6d1c9"
              d="M 89.167969 228.007812 C 71.976562 273.351562 133.613281 331.164062 173.335938 345.378906 C 236.433594 373.226562 300.589844 343.636719 338.671875 298.414062 C 405.542969 220.398438 345.8125 59.222656 222.902344 71.980469 C 165.585938 75.632812 87.960938 145.59375 92.285156 207.054688 "
              fill-opacity="1" fill-rule="nonzero"/>
    </g>
    <path fill="#fae9e5"
          d="M 29.683594 175.847656 C 28.730469 169.363281 18.671875 170.839844 19.628906 177.328125 C 20.582031 183.8125 30.640625 182.335938 29.683594 175.847656 "
          fill-opacity="1" fill-rule="nonzero"/>
    <path fill="#fae9e5"
          d="M 50.101562 140.921875 C 49.148438 134.441406 39.089844 135.917969 40.039062 142.398438 C 41 148.878906 51.054688 147.398438 50.101562 140.921875 "
          fill-opacity="1" fill-rule="nonzero"/>
    <path fill="#fae9e5"
          d="M 61.132812 161.652344 C 60.183594 155.167969 50.125 156.644531 51.082031 163.128906 C 52.03125 169.609375 62.085938 168.128906 61.132812 161.652344 "
          fill-opacity="1" fill-rule="nonzero"/>
    <path fill="#fae9e5"
          d="M 35.207031 159.074219 C 34.253906 152.589844 24.195312 154.070312 25.144531 160.554688 C 26.097656 167.039062 36.15625 165.554688 35.207031 159.074219 "
          fill-opacity="1" fill-rule="nonzero"/>
    <path fill="#fae9e5"
          d="M 86.464844 181.871094 C 85.511719 175.386719 75.457031 176.863281 76.410156 183.351562 C 77.367188 189.835938 87.417969 188.355469 86.464844 181.871094 "
          fill-opacity="1" fill-rule="nonzero"/>
    <path fill="#fae9e5"
          d="M 107.117188 148.503906 C 106.164062 142.027344 96.101562 143.5 97.054688 149.984375 C 98.015625 156.464844 108.066406 154.984375 107.117188 148.503906 "
          fill-opacity="1" fill-rule="nonzero"/>
    <path fill="#fae9e5"
          d="M 90.328125 142.988281 C 89.375 136.507812 79.320312 137.984375 80.273438 144.464844 C 81.234375 150.949219 91.285156 149.472656 90.328125 142.988281 "
          fill-opacity="1" fill-rule="nonzero"/>
    <path fill="#fae9e5"
          d="M 72.398438 129.65625 C 71.445312 123.175781 61.386719 124.652344 62.34375 131.136719 C 63.292969 137.621094 73.355469 136.136719 72.398438 129.65625 "
          fill-opacity="1" fill-rule="nonzero"/>
    <path fill="#fae9e5"
          d="M 67.164062 104.882812 C 66.207031 98.402344 56.148438 99.878906 57.101562 106.359375 C 58.0625 112.847656 68.113281 111.367188 67.164062 104.882812 "
          fill-opacity="1" fill-rule="nonzero"/>
    <path fill="#fae9e5"
          d="M 97.828125 117.9375 C 96.875 111.460938 86.820312 112.9375 87.769531 119.417969 C 88.726562 125.902344 98.78125 124.421875 97.828125 117.9375 "
          fill-opacity="1" fill-rule="nonzero"/>
    <path fill="#fae9e5"
          d="M 123.53125 118.949219 C 122.578125 112.472656 112.523438 113.945312 113.472656 120.429688 C 114.425781 126.910156 124.484375 125.433594 123.53125 118.949219 "
          fill-opacity="1" fill-rule="nonzero"/>
    <path fill="#fae9e5"
          d="M 130.839844 157.789062 C 129.886719 151.308594 119.828125 152.789062 120.789062 159.269531 C 121.734375 165.753906 131.792969 164.273438 130.839844 157.789062 "
          fill-opacity="1" fill-rule="nonzero"/>
    <path fill="#fae9e5"
          d="M 124.992188 204.945312 C 124.042969 198.460938 113.988281 199.941406 114.941406 206.425781 C 115.902344 212.90625 125.953125 211.425781 124.992188 204.945312 "
          fill-opacity="1" fill-rule="nonzero"/>
    <path fill="#fae9e5"
          d="M 91.0625 213.125 C 90.113281 206.640625 80.050781 208.117188 81.007812 214.601562 C 81.964844 221.085938 92.019531 219.605469 91.0625 213.125 "
          fill-opacity="1" fill-rule="nonzero"/>
    <path fill="#fae9e5"
          d="M 65.132812 210.550781 C 64.179688 204.066406 54.121094 205.546875 55.074219 212.027344 C 56.027344 218.507812 66.082031 217.03125 65.132812 210.550781 "
          fill-opacity="1" fill-rule="nonzero"/>
    <path fill="#fae9e5"
          d="M 61.914062 188.671875 C 60.960938 182.1875 50.910156 183.667969 51.859375 190.148438 C 52.8125 196.636719 62.867188 195.152344 61.914062 188.671875 "
          fill-opacity="1" fill-rule="nonzero"/>
    <path fill="#fae9e5"
          d="M 36.304688 209.996094 C 35.351562 203.515625 25.292969 204.992188 26.242188 211.476562 C 27.199219 217.957031 37.253906 216.476562 36.304688 209.996094 "
          fill-opacity="1" fill-rule="nonzero"/>
    <path fill="#fae9e5"
          d="M 53.175781 237.847656 C 52.222656 231.367188 42.167969 232.84375 43.121094 239.324219 C 44.074219 245.808594 54.132812 244.332031 53.175781 237.847656 "
          fill-opacity="1" fill-rule="nonzero"/>
    <path fill="#fae9e5"
          d="M 19.707031 140.601562 C 18.753906 134.113281 8.695312 135.589844 9.652344 142.078125 C 10.605469 148.558594 20.660156 147.074219 19.707031 140.601562 "
          fill-opacity="1" fill-rule="nonzero"/>
    <path fill="#fae9e5"
          d="M 21.132812 106.859375 C 20.183594 100.378906 10.125 101.851562 11.082031 108.335938 C 12.03125 114.820312 22.085938 113.34375 21.132812 106.859375 "
          fill-opacity="1" fill-rule="nonzero"/>
    <path fill="#fae9e5"
          d="M 39.804688 81.765625 C 38.847656 75.28125 28.792969 76.761719 29.746094 83.242188 C 30.699219 89.722656 40.761719 88.246094 39.804688 81.765625 "
          fill-opacity="1" fill-rule="nonzero"/>
    <path fill="#fae9e5"
          d="M 44.863281 116.144531 C 43.910156 109.664062 33.855469 111.140625 34.804688 117.625 C 35.757812 124.101562 45.8125 122.625 44.863281 116.144531 "
          fill-opacity="1" fill-rule="nonzero"/>
    <path fill="#fae9e5"
          d="M 64.039062 51.070312 C 63.085938 44.582031 53.023438 46.0625 53.980469 52.546875 C 54.929688 59.023438 64.992188 57.542969 64.039062 51.070312 "
          fill-opacity="1" fill-rule="nonzero"/>
    <path fill="#fae9e5"
          d="M 57.414062 71.195312 C 56.460938 64.714844 46.402344 66.183594 47.355469 72.671875 C 48.3125 79.152344 58.367188 77.679688 57.414062 71.195312 "
          fill-opacity="1" fill-rule="nonzero"/>
    <path fill="#fae9e5"
          d="M 79.574219 80.707031 C 78.621094 74.230469 68.5625 75.710938 69.515625 82.183594 C 70.46875 88.667969 80.527344 87.191406 79.574219 80.707031 "
          fill-opacity="1" fill-rule="nonzero"/>
    <path fill="#fae9e5"
          d="M 117.324219 76.757812 C 116.375 70.277344 106.316406 71.753906 107.269531 78.234375 C 108.222656 84.71875 118.277344 83.238281 117.324219 76.757812 "
          fill-opacity="1" fill-rule="nonzero"/>
    <path fill="#fae9e5"
          d="M 121.238281 49.042969 C 120.28125 42.566406 110.226562 44.039062 111.175781 50.523438 C 112.128906 57.003906 122.1875 55.527344 121.238281 49.042969 "
          fill-opacity="1" fill-rule="nonzero"/>
    <path fill="#fae9e5"
          d="M 144.730469 56.765625 C 143.78125 50.28125 133.722656 51.761719 134.671875 58.242188 C 135.625 64.726562 145.683594 63.25 144.730469 56.765625 "
          fill-opacity="1" fill-rule="nonzero"/>
    <path fill="#fae9e5"
          d="M 153.832031 96.941406 C 152.875 90.460938 142.820312 91.929688 143.777344 98.421875 C 144.726562 104.898438 154.785156 103.417969 153.832031 96.941406 "
          fill-opacity="1" fill-rule="nonzero"/>
    <path fill="#fae9e5"
          d="M 180.867188 96.15625 C 179.917969 89.671875 169.859375 91.152344 170.8125 97.632812 C 171.765625 104.121094 181.828125 102.640625 180.867188 96.15625 "
          fill-opacity="1" fill-rule="nonzero"/>
    <path fill="#fae9e5"
          d="M 219.90625 133.523438 C 218.949219 127.046875 208.894531 128.523438 209.847656 135.003906 C 210.800781 141.488281 220.855469 140.011719 219.90625 133.523438 "
          fill-opacity="1" fill-rule="nonzero"/>
    <path fill="#fae9e5"
          d="M 233.007812 114.042969 C 232.054688 107.5625 221.996094 109.035156 222.949219 115.519531 C 223.902344 121.996094 233.960938 120.519531 233.007812 114.042969 "
          fill-opacity="1" fill-rule="nonzero"/>
    <path fill="#fae9e5"
          d="M 251.582031 120.894531 C 250.632812 114.410156 240.574219 115.886719 241.527344 122.367188 C 242.476562 128.851562 252.535156 127.371094 251.582031 120.894531 "
          fill-opacity="1" fill-rule="nonzero"/>
    <path fill="#fae9e5"
          d="M 266.015625 153.890625 C 265.0625 147.402344 255.011719 148.882812 255.957031 155.367188 C 256.917969 161.851562 266.96875 160.371094 266.015625 153.890625 "
          fill-opacity="1" fill-rule="nonzero"/>
    <path fill="#fae9e5"
          d="M 249.371094 181.878906 C 248.421875 175.398438 238.363281 176.875 239.320312 183.359375 C 240.269531 189.839844 250.328125 188.359375 249.371094 181.878906 "
          fill-opacity="1" fill-rule="nonzero"/>
    <path fill="#fae9e5"
          d="M 251.257812 151.269531 C 250.308594 144.789062 240.25 146.265625 241.203125 152.746094 C 242.152344 159.230469 252.214844 157.75 251.257812 151.269531 "
          fill-opacity="1" fill-rule="nonzero"/>
    <path fill="#fae9e5"
          d="M 228.40625 191.347656 C 227.453125 184.867188 217.394531 186.339844 218.351562 192.824219 C 219.300781 199.308594 229.359375 197.828125 228.40625 191.347656 "
          fill-opacity="1" fill-rule="nonzero"/>
    <path fill="#fae9e5"
          d="M 206.65625 173.789062 C 205.699219 167.304688 195.648438 168.78125 196.601562 175.265625 C 197.554688 181.75 207.609375 180.269531 206.65625 173.789062 "
          fill-opacity="1" fill-rule="nonzero"/>
    <path fill="#fae9e5"
          d="M 185.324219 148.183594 C 184.371094 141.703125 174.316406 143.183594 175.265625 149.664062 C 176.222656 156.148438 186.277344 154.671875 185.324219 148.183594 "
          fill-opacity="1" fill-rule="nonzero"/>
    <path fill="#fae9e5"
          d="M 165.273438 218.183594 C 164.320312 211.699219 154.261719 213.175781 155.21875 219.660156 C 156.171875 226.144531 166.226562 224.664062 165.273438 218.183594 "
          fill-opacity="1" fill-rule="nonzero"/>
    <path fill="#fae9e5"
          d="M 191.484375 233.488281 C 190.527344 227.003906 180.476562 228.484375 181.425781 234.964844 C 182.382812 241.449219 192.433594 239.972656 191.484375 233.488281 "
          fill-opacity="1" fill-rule="nonzero"/>
    <path fill="#fae9e5"
          d="M 154.511719 264.464844 C 153.558594 257.980469 143.503906 259.457031 144.460938 265.945312 C 145.410156 272.425781 155.464844 270.949219 154.511719 264.464844 "
          fill-opacity="1" fill-rule="nonzero"/>
    <path fill="#fae9e5"
          d="M 136.398438 260.742188 C 135.449219 254.261719 125.386719 255.738281 126.339844 262.222656 C 127.292969 268.707031 137.351562 267.226562 136.398438 260.742188 "
          fill-opacity="1" fill-rule="nonzero"/>
    <path fill="#fae9e5"
          d="M 100.761719 235.644531 C 99.808594 229.164062 89.753906 230.640625 90.710938 237.125 C 91.660156 243.605469 101.722656 242.125 100.761719 235.644531 "
          fill-opacity="1" fill-rule="nonzero"/>
    <path fill="#fae9e5"
          d="M 83.839844 250.90625 C 82.890625 244.425781 72.839844 245.902344 73.785156 252.382812 C 74.738281 258.867188 84.796875 257.390625 83.839844 250.90625 "
          fill-opacity="1" fill-rule="nonzero"/>
    <path fill="#fae9e5"
          d="M 157.277344 120.378906 C 156.328125 113.894531 146.265625 115.371094 147.222656 121.855469 C 148.175781 128.339844 158.234375 126.863281 157.277344 120.378906 "
          fill-opacity="1" fill-rule="nonzero"/>
    <path fill="#fae9e5"
          d="M 168.632812 165.011719 C 167.683594 158.527344 157.625 160.003906 158.578125 166.488281 C 159.527344 172.96875 169.585938 171.488281 168.632812 165.011719 "
          fill-opacity="1" fill-rule="nonzero"/>
    <path fill="#fae9e5"
          d="M 156.402344 179.578125 C 155.449219 173.097656 145.394531 174.574219 146.34375 181.058594 C 147.300781 187.539062 157.355469 186.058594 156.402344 179.578125 "
          fill-opacity="1" fill-rule="nonzero"/>
    <path fill="#fae9e5"
          d="M 180.585938 191.984375 C 179.632812 185.503906 169.574219 186.980469 170.527344 193.460938 C 171.484375 199.949219 181.539062 198.46875 180.585938 191.984375 "
          fill-opacity="1" fill-rule="nonzero"/>
    <path fill="#fae9e5"
          d="M 127.847656 191.757812 C 126.898438 185.269531 116.835938 186.75 117.796875 193.234375 C 118.75 199.714844 128.804688 198.234375 127.847656 191.757812 "
          fill-opacity="1" fill-rule="nonzero"/>
    <path fill="#fae9e5"
          d="M 147.023438 235.234375 C 146.070312 228.75 136.015625 230.226562 136.964844 236.710938 C 137.914062 243.195312 147.972656 241.714844 147.023438 235.234375 "
          fill-opacity="1" fill-rule="nonzero"/>
    <path fill="#fae9e5"
          d="M 215.808594 225.128906 C 214.851562 218.640625 204.796875 220.125 205.753906 226.605469 C 206.703125 233.085938 216.761719 231.609375 215.808594 225.128906 "
          fill-opacity="1" fill-rule="nonzero"/>
    <path fill="#fae9e5"
          d="M 208.363281 98.503906 C 207.414062 92.023438 197.355469 93.5 198.308594 99.980469 C 199.261719 106.464844 209.316406 104.988281 208.363281 98.503906 "
          fill-opacity="1" fill-rule="nonzero"/>
    <path fill="#fae9e5"
          d="M 209.789062 64.761719 C 208.839844 58.28125 198.777344 59.757812 199.734375 66.242188 C 200.6875 72.726562 210.746094 71.25 209.789062 64.761719 "
          fill-opacity="1" fill-rule="nonzero"/>
    <path fill="#fae9e5"
          d="M 187.902344 67.988281 C 186.949219 61.503906 176.894531 62.980469 177.84375 69.464844 C 178.796875 75.953125 188.859375 74.464844 187.902344 67.988281 "
          fill-opacity="1" fill-rule="nonzero"/>
    <path fill="#fae9e5"
          d="M 183.535156 38.289062 C 182.582031 31.804688 172.527344 33.285156 173.476562 39.765625 C 174.433594 46.25 184.488281 44.773438 183.535156 38.289062 "
          fill-opacity="1" fill-rule="nonzero"/>
    <path fill="#fae9e5"
          d="M 224 41.925781 C 223.046875 35.441406 212.988281 36.917969 213.941406 43.402344 C 214.894531 49.878906 224.953125 48.410156 224 41.925781 "
          fill-opacity="1" fill-rule="nonzero"/>
    <path fill="#fae9e5"
          d="M 240.824219 58.601562 C 239.871094 52.117188 229.820312 53.597656 230.769531 60.089844 C 231.726562 66.566406 241.777344 65.085938 240.824219 58.601562 "
          fill-opacity="1" fill-rule="nonzero"/>
    <path fill="#fae9e5"
          d="M 255.722656 94.734375 C 254.769531 88.253906 244.714844 89.734375 245.667969 96.210938 C 246.621094 102.695312 256.675781 101.21875 255.722656 94.734375 "
          fill-opacity="1" fill-rule="nonzero"/>
    <path fill="#fae9e5"
          d="M 221.515625 90.1875 C 220.5625 83.703125 210.503906 85.179688 211.457031 91.664062 C 212.410156 98.148438 222.46875 96.671875 221.515625 90.1875 "
          fill-opacity="1" fill-rule="nonzero"/>
    <path fill="#fae9e5"
          d="M 81.421875 38.929688 C 80.46875 32.445312 70.414062 33.925781 71.363281 40.410156 C 72.316406 46.890625 82.371094 45.414062 81.421875 38.929688 "
          fill-opacity="1" fill-rule="nonzero"/>
    <path fill="#fae9e5"
          d="M 141.695312 25.285156 C 140.742188 18.792969 130.6875 20.277344 131.636719 26.761719 C 132.597656 33.238281 142.648438 31.761719 141.695312 25.285156 "
          fill-opacity="1" fill-rule="nonzero"/>
    <path fill="#fae9e5"
          d="M 184.867188 253.617188 C 183.90625 247.136719 173.855469 248.613281 174.804688 255.09375 C 175.757812 261.578125 185.816406 260.101562 184.867188 253.617188 "
          fill-opacity="1" fill-rule="nonzero"/>
    <path fill="#fae9e5"
          d="M 123.109375 235.554688 C 122.15625 229.070312 112.101562 230.546875 113.054688 237.03125 C 114.007812 243.515625 124.070312 242.039062 123.109375 235.554688 "
          fill-opacity="1" fill-rule="nonzero"/>
    <path fill="#fae9e5"
          d="M 100.3125 69.679688 C 99.359375 63.195312 89.304688 64.675781 90.253906 71.160156 C 91.207031 77.636719 101.261719 76.160156 100.3125 69.679688 "
          fill-opacity="1" fill-rule="nonzero"/>
    <path fill="#fae9e5"
          d="M 184.546875 121.160156 C 183.59375 114.679688 173.539062 116.160156 174.492188 122.636719 C 175.441406 129.121094 185.5 127.644531 184.546875 121.160156 "
          fill-opacity="1" fill-rule="nonzero"/>
    <path fill="#fae9e5"
          d="M 148.265625 156.828125 C 147.316406 150.34375 137.253906 151.820312 138.210938 158.308594 C 139.160156 164.785156 149.21875 163.308594 148.265625 156.828125 "
          fill-opacity="1" fill-rule="nonzero"/>
    <path fill="#fae9e5"
          d="M 114.480469 35.667969 C 113.523438 29.183594 103.464844 30.664062 104.425781 37.144531 C 105.375 43.628906 115.429688 42.152344 114.480469 35.667969 "
          fill-opacity="1" fill-rule="nonzero"/>
    <path fill="#fae9e5"
          d="M 162.0625 33.46875 C 161.113281 26.984375 151.054688 28.460938 152.007812 34.945312 C 152.960938 41.425781 163.019531 39.945312 162.0625 33.46875 "
          fill-opacity="1" fill-rule="nonzero"/>
    <path fill="#fae9e5"
          d="M 131.488281 97.027344 C 130.527344 90.546875 120.476562 92.023438 121.425781 98.511719 C 122.378906 104.992188 132.4375 103.511719 131.488281 97.027344 "
          fill-opacity="1" fill-rule="nonzero"/>
    <path fill="#fae9e5"
          d="M 227.933594 164.273438 C 227.21875 159.414062 219.675781 160.523438 220.390625 165.382812 C 221.105469 170.246094 228.644531 169.140625 227.933594 164.273438 "
          fill-opacity="1" fill-rule="nonzero"/>
    <path fill="#fae9e5"
          d="M 236.847656 214.050781 C 236.136719 209.191406 228.585938 210.296875 229.308594 215.160156 C 230.023438 220.023438 237.5625 218.914062 236.847656 214.050781 "
          fill-opacity="1" fill-rule="nonzero"/>
    <path fill="#fae9e5"
          d="M 205.535156 207.476562 C 204.820312 202.613281 197.28125 203.726562 197.996094 208.582031 C 198.707031 213.449219 206.253906 212.339844 205.535156 207.476562 "
          fill-opacity="1" fill-rule="nonzero"/>
    <path fill="#fae9e5"
          d="M 105.203125 263.726562 C 104.492188 258.867188 96.949219 259.976562 97.664062 264.839844 C 98.382812 269.699219 105.925781 268.59375 105.203125 263.726562 "
          fill-opacity="1" fill-rule="nonzero"/>
    <path fill="#fae9e5"
          d="M 104.386719 171.261719 C 103.667969 166.394531 96.128906 167.503906 96.839844 172.367188 C 97.558594 177.226562 105.097656 176.121094 104.386719 171.261719 "
          fill-opacity="1" fill-rule="nonzero"/>
    <path fill="#fae9e5"
          d="M 107.234375 103.789062 C 106.519531 98.925781 98.976562 100.03125 99.695312 104.894531 C 100.40625 109.753906 107.957031 108.648438 107.234375 103.789062 "
          fill-opacity="1" fill-rule="nonzero"/>
    <path fill="#fae9e5"
          d="M 88.945312 55.386719 C 88.226562 50.527344 80.6875 51.632812 81.398438 56.5 C 82.117188 61.359375 89.65625 60.246094 88.945312 55.386719 "
          fill-opacity="1" fill-rule="nonzero"/>
    <path fill="#fae9e5"
          d="M 172.070312 55.9375 C 171.355469 51.078125 163.8125 52.183594 164.527344 57.050781 C 165.246094 61.910156 172.78125 60.804688 172.070312 55.9375 "
          fill-opacity="1" fill-rule="nonzero"/>
    <path fill="#fae9e5"
          d="M 204.320312 36.289062 C 203.605469 31.433594 196.0625 32.535156 196.777344 37.398438 C 197.492188 42.261719 205.03125 41.152344 204.320312 36.289062 "
          fill-opacity="1" fill-rule="nonzero"/>
    <path fill="#fae9e5"
          d="M 137.308594 134.492188 C 136.59375 129.625 129.050781 130.738281 129.765625 135.601562 C 130.480469 140.460938 138.027344 139.351562 137.308594 134.492188 "
          fill-opacity="1" fill-rule="nonzero"/>
    <path fill="#fae9e5"
          d="M 160.339844 139.085938 C 159.628906 134.226562 152.085938 135.332031 152.800781 140.191406 C 153.515625 145.054688 161.0625 143.945312 160.339844 139.085938 "
          fill-opacity="1" fill-rule="nonzero"/>
    <path fill="#fae9e5"
          d="M 146.316406 206.597656 C 145.605469 201.734375 138.058594 202.847656 138.777344 207.707031 C 139.488281 212.570312 147.03125 211.460938 146.316406 206.597656 "
          fill-opacity="1" fill-rule="nonzero"/>
    <path fill="#fae9e5"
          d="M 166.132812 243.601562 C 165.417969 238.738281 157.875 239.847656 158.59375 244.710938 C 159.300781 249.570312 166.847656 248.460938 166.132812 243.601562 "
          fill-opacity="1" fill-rule="nonzero"/>
    <g fill="#a7867c" fill-opacity="1">
        <g transform="translate(109.056193, 193.699881)">
            <g>
                <path d="M 7.199219 13.964844 C 10.558594 14.109375 12.863281 12.09375 14.398438 8.6875 C 15.359375 6.574219 16.03125 3.695312 16.796875 0.144531 C 20.203125 -1.105469 26.203125 -2.976562 28.941406 -10.65625 C 29.179688 -11.328125 27.835938 -11.855469 27.644531 -11.421875 C 25.484375 -6.046875 21.070312 -3.023438 17.421875 -2.207031 C 20.445312 -13.292969 23.804688 -26.875 25.4375 -32.25 C 25.820312 -33.449219 23.371094 -34.265625 22.652344 -32.585938 C 16.75 -25.339844 7.871094 -26.203125 6.429688 -19.964844 C 5.902344 -17.660156 6.671875 -14.253906 11.230469 -13.871094 C 12.476562 -13.726562 12.574219 -15.886719 11.613281 -15.980469 C 9.261719 -16.222656 9.070312 -17.902344 9.40625 -19.53125 C 10.175781 -23.371094 16.652344 -23.851562 21.742188 -29.179688 C 18.765625 -18.140625 18.1875 -15.742188 14.300781 -1.007812 C 9.214844 0.671875 3.792969 2.253906 2.351562 7.292969 C 1.34375 11.183594 3.933594 13.820312 7.199219 13.964844 Z M 7.246094 11.519531 C 5.472656 11.46875 4.128906 9.886719 5.183594 7.246094 C 6.335938 4.320312 10.414062 2.351562 13.726562 1.199219 C 12.910156 5.277344 12.285156 6.957031 11.804688 7.964844 C 10.605469 10.511719 8.78125 11.566406 7.246094 11.519531 Z M 7.246094 11.519531 "/>
            </g>
        </g>
    </g>
    <g fill="#a7867c" fill-opacity="1">
        <g transform="translate(136.745435, 193.699881)">
            <g>
                <path d="M 9.839844 -20.15625 C 4.078125 -19.148438 -0.335938 -12.863281 -1.34375 -7.582031 C -2.207031 -3.167969 -0.816406 0.527344 3.167969 0.433594 C 6.621094 0.335938 8.636719 -2.6875 10.558594 -5.808594 C 9.742188 -2.160156 11.277344 0 13.34375 0 C 17.710938 0 20.972656 -5.519531 23.132812 -10.605469 C 23.421875 -11.328125 21.980469 -11.902344 21.835938 -11.421875 C 19.867188 -6.285156 16.414062 -2.207031 14.253906 -2.207031 C 13.054688 -2.207031 12.957031 -3.359375 13.292969 -5.421875 C 13.773438 -8.398438 15.023438 -12.671875 15.644531 -15.023438 C 15.886719 -15.933594 13.292969 -16.703125 13.054688 -15.597656 C 11.132812 -6.863281 4.894531 0.0976562 2.449219 -2.449219 C 0.960938 -3.984375 1.488281 -8.445312 3.40625 -11.804688 C 5.183594 -14.925781 7.726562 -17.277344 10.367188 -17.851562 C 12.335938 -18.332031 14.828125 -17.710938 16.894531 -16.125 C 17.515625 -15.550781 19.148438 -17.230469 18.621094 -17.757812 C 16.171875 -20.203125 12.621094 -20.683594 9.839844 -20.15625 Z M 9.839844 -20.15625 "/>
            </g>
        </g>
    </g>
    <g fill="#a7867c" fill-opacity="1">
        <g transform="translate(158.628093, 193.699881)">
            <g>
                <path d="M 0.382812 -8.636719 C 2.449219 -13.054688 3.261719 -16.222656 4.078125 -19.339844 C 5.277344 -17.804688 7.726562 -15.742188 6.480469 -14.015625 C 4.367188 -11.085938 2.351562 -7.964844 2.398438 -4.800781 C 2.449219 -2.015625 3.933594 0.289062 7.054688 0.433594 C 11.613281 0.671875 15.359375 -3.597656 18.1875 -10.605469 C 18.429688 -11.230469 17.085938 -11.902344 16.894531 -11.421875 C 14.253906 -4.800781 10.511719 -1.824219 7.871094 -1.917969 C 6.285156 -1.96875 5.519531 -3.121094 5.472656 -4.75 C 5.375 -7.628906 7.390625 -10.703125 9.550781 -13.34375 C 11.277344 -15.453125 7.101562 -18.859375 4.894531 -21.546875 C 6.335938 -27.59375 -1.007812 -25.722656 2.832031 -20.636719 C 1.777344 -16.414062 1.105469 -13.964844 -0.910156 -9.359375 C -1.199219 -8.925781 0.191406 -8.253906 0.382812 -8.636719 Z M 0.382812 -8.636719 "/>
            </g>
        </g>
    </g>
    <g fill="#a7867c" fill-opacity="1">
        <g transform="translate(175.567958, 193.699881)">
            <g>
                <path d="M 18.71875 -32.777344 C 17.324219 -29.804688 14.636719 -22.027344 13.820312 -19.292969 C 10.992188 -20.398438 4.992188 -19.675781 1.390625 -14.207031 C -2.6875 -7.824219 -2.253906 0.671875 3.457031 0.480469 C 6.671875 0.382812 9.40625 -2.734375 10.796875 -5.855469 C 10.222656 -2.351562 11.664062 0.046875 14.0625 0 C 18.1875 -0.0976562 21.355469 -6 23.226562 -10.65625 C 23.46875 -11.277344 22.125 -11.902344 21.933594 -11.421875 C 20.203125 -6.957031 17.179688 -2.253906 14.878906 -2.253906 C 10.65625 -2.253906 18.429688 -25.292969 21.210938 -31.820312 C 21.691406 -32.875 19.003906 -33.449219 18.71875 -32.777344 Z M 13.199219 -17.179688 C 12.765625 -15.359375 12 -12.335938 11.132812 -10.078125 C 8.78125 -3.933594 4.800781 -0.433594 2.734375 -2.449219 C 1.105469 -4.03125 1.679688 -8.925781 3.597656 -12.285156 C 6.09375 -16.703125 10.125 -18.238281 13.199219 -17.179688 Z M 13.199219 -17.179688 "/>
            </g>
        </g>
    </g>
    <g fill="#a7867c" fill-opacity="1">
        <g transform="translate(197.546597, 193.699881)">
            <g>
                <path d="M 5.277344 -28.171875 C 4.558594 -27.210938 3.167969 -25.292969 2.496094 -24.285156 C 1.871094 -23.277344 3.984375 -22.84375 4.605469 -23.660156 L 7.488281 -27.257812 C 8.207031 -28.125 5.949219 -29.082031 5.277344 -28.171875 Z M 2.207031 -19.339844 C 0.238281 -12.285156 -0.574219 -9.453125 -1.632812 -4.992188 C -2.449219 -1.488281 -1.726562 0.433594 1.054688 0.480469 C 5.230469 0.527344 8.445312 -6.046875 10.605469 -10.558594 C 10.992188 -11.328125 9.503906 -11.949219 9.261719 -11.375 C 7.535156 -7.054688 4.175781 -1.871094 1.777344 -1.777344 C 0.335938 -1.726562 0.671875 -3.359375 1.152344 -5.328125 C 2.113281 -9.261719 2.640625 -11.183594 4.847656 -19.003906 C 5.039062 -19.773438 2.542969 -20.539062 2.207031 -19.339844 Z M 2.207031 -19.339844 "/>
            </g>
        </g>
    </g>
    <g fill="#a7867c" fill-opacity="1">
        <g transform="translate(206.952301, 193.699881)">
            <g>
                <path d="M 12 -20.347656 C 8.589844 -20.398438 5.136719 -16.460938 3.359375 -13.773438 C 3.933594 -15.789062 4.128906 -16.558594 4.703125 -18.859375 C 4.992188 -20.0625 2.207031 -20.589844 1.917969 -19.339844 C 0.0976562 -11.664062 -1.054688 -7.535156 -2.734375 -1.105469 C -3.121094 0.335938 0.046875 0.289062 0.238281 -0.574219 C 1.152344 -4.800781 1.390625 -5.757812 2.734375 -10.320312 C 4.992188 -14.109375 8.925781 -17.851562 11.277344 -17.804688 C 13.246094 -17.757812 12.765625 -15.359375 12.382812 -13.773438 C 11.664062 -10.75 10.175781 -5.183594 10.03125 -3.40625 C 9.839844 -0.910156 10.894531 0.480469 13.246094 0.480469 C 17.179688 0.480469 20.589844 -5.949219 22.507812 -10.605469 C 22.796875 -11.328125 21.40625 -11.902344 21.210938 -11.421875 C 19.195312 -6.238281 15.886719 -1.777344 13.726562 -1.777344 C 12.238281 -1.777344 12.910156 -4.175781 13.292969 -5.902344 C 13.871094 -8.351562 14.828125 -10.796875 15.40625 -13.246094 C 16.367188 -17.230469 15.597656 -20.300781 12 -20.347656 Z M 12 -20.347656 "/>
            </g>
        </g>
    </g>
    <g fill="#a7867c" fill-opacity="1">
        <g transform="translate(228.21112, 193.699881)">
            <g/>
        </g>
    </g>
    <g fill="#a7867c" fill-opacity="1">
        <g transform="translate(237.32889, 193.699881)">
            <g>
                <path d="M 18.71875 -32.777344 C 17.324219 -29.804688 14.636719 -22.027344 13.820312 -19.292969 C 10.992188 -20.398438 4.992188 -19.675781 1.390625 -14.207031 C -2.6875 -7.824219 -2.253906 0.671875 3.457031 0.480469 C 6.671875 0.382812 9.40625 -2.734375 10.796875 -5.855469 C 10.222656 -2.351562 11.664062 0.046875 14.0625 0 C 18.1875 -0.0976562 21.355469 -6 23.226562 -10.65625 C 23.46875 -11.277344 22.125 -11.902344 21.933594 -11.421875 C 20.203125 -6.957031 17.179688 -2.253906 14.878906 -2.253906 C 10.65625 -2.253906 18.429688 -25.292969 21.210938 -31.820312 C 21.691406 -32.875 19.003906 -33.449219 18.71875 -32.777344 Z M 13.199219 -17.179688 C 12.765625 -15.359375 12 -12.335938 11.132812 -10.078125 C 8.78125 -3.933594 4.800781 -0.433594 2.734375 -2.449219 C 1.105469 -4.03125 1.679688 -8.925781 3.597656 -12.285156 C 6.09375 -16.703125 10.125 -18.238281 13.199219 -17.179688 Z M 13.199219 -17.179688 "/>
            </g>
        </g>
    </g>
    <g fill="#a7867c" fill-opacity="1">
        <g transform="translate(259.30753, 193.699881)">
            <g>
                <path d="M 10.75 -20.300781 C 6.527344 -20.589844 1.824219 -17.230469 -0.144531 -11.328125 C -2.0625 -5.613281 0.046875 0 6.382812 0.480469 C 9.597656 0.71875 16.558594 0 20.539062 -10.605469 C 20.78125 -11.277344 19.4375 -11.902344 19.246094 -11.421875 C 16.125 -3.503906 10.269531 -1.246094 6.480469 -1.917969 C 3.167969 -2.496094 1.632812 -5.375 2.398438 -8.972656 C 8.109375 -7.199219 12.8125 -8.878906 14.734375 -12.671875 C 16.367188 -15.886719 15.308594 -20.011719 10.75 -20.300781 Z M 10.175781 -18.046875 C 13.148438 -18.046875 13.054688 -15.308594 11.804688 -13.101562 C 10.320312 -10.460938 7.152344 -9.789062 2.832031 -10.75 C 3.886719 -14.589844 7.390625 -18.046875 10.175781 -18.046875 Z M 10.175781 -18.046875 "/>
            </g>
        </g>
    </g>
    <g fill="#a7867c" fill-opacity="1">
        <g transform="translate(278.598822, 193.699881)">
            <g/>
        </g>
    </g>
    <g fill="#a7867c" fill-opacity="1">
        <g transform="translate(287.716593, 193.699881)">
            <g>
                <path d="M 8.253906 -32.011719 C 5.375 -29.707031 2.6875 -23.179688 0.863281 -16.222656 C -1.296875 -8.015625 -2.160156 -0.289062 3.40625 0.480469 C 9.308594 1.296875 12.285156 -4.511719 14.972656 -10.558594 C 15.308594 -11.328125 13.871094 -11.902344 13.679688 -11.421875 C 12.527344 -8.496094 9.167969 -1.296875 4.367188 -1.871094 C 1.535156 -2.207031 1.632812 -6.71875 2.6875 -11.804688 C 7.964844 -15.117188 11.375 -19.675781 13.34375 -24.234375 C 16.460938 -31.433594 12.285156 -35.273438 8.253906 -32.011719 Z M 10.992188 -30.621094 C 12.476562 -30.476562 11.855469 -27.164062 9.839844 -22.796875 C 8.300781 -19.582031 6.046875 -16.84375 3.261719 -14.398438 C 4.269531 -18.238281 5.566406 -21.882812 6.335938 -23.804688 C 7.964844 -27.929688 9.453125 -30.761719 10.992188 -30.621094 Z M 10.992188 -30.621094 "/>
            </g>
        </g>
    </g>
    <g fill="#a7867c" fill-opacity="1">
        <g transform="translate(301.441251, 193.699881)">
            <g>
                <path d="M 10.460938 -20.347656 C 4.992188 -20.109375 0.191406 -14.828125 -0.769531 -8.589844 C -1.824219 -1.871094 1.582031 0.433594 5.183594 0.433594 C 8.300781 0.433594 10.703125 -0.960938 12.621094 -3.214844 C 16.171875 -2.160156 20.0625 -3.457031 22.941406 -10.605469 C 23.226562 -11.328125 21.835938 -11.855469 21.644531 -11.421875 C 19.195312 -5.183594 16.316406 -4.464844 13.871094 -4.65625 C 17.613281 -10.941406 18.523438 -20.683594 10.460938 -20.347656 Z M 10.269531 -17.996094 C 15.070312 -18.285156 14.300781 -11.664062 11.855469 -6.71875 C 10.796875 -7.34375 9.40625 -5.808594 10.460938 -4.464844 C 9.167969 -2.925781 7.4375 -1.917969 5.664062 -1.917969 C 2.449219 -1.917969 1.824219 -5.183594 2.253906 -8.351562 C 2.785156 -12.238281 6.335938 -17.757812 10.269531 -17.996094 Z M 10.269531 -17.996094 "/>
            </g>
        </g>
    </g>
    <g fill="#a7867c" fill-opacity="1">
        <g transform="translate(323.131969, 193.699881)">
            <g>
                <path d="M 5.472656 0.433594 C 7.773438 0.480469 10.222656 -0.71875 11.46875 -2.878906 C 14.492188 -2.589844 17.949219 -4.269531 20.492188 -10.605469 C 20.78125 -11.277344 19.390625 -11.902344 19.195312 -11.421875 C 17.085938 -6.046875 14.542969 -4.558594 12.191406 -4.558594 C 13.773438 -9.933594 9.359375 -13.535156 9.117188 -20.15625 C 10.511719 -21.546875 8.78125 -23.515625 6.335938 -21.453125 C 3.648438 -19.246094 1.390625 -15.023438 -0.910156 -9.359375 C -1.105469 -8.878906 0.191406 -8.207031 0.382812 -8.6875 C 2.6875 -13.917969 4.078125 -16.988281 6.816406 -19.726562 C 6.621094 -14.925781 10.320312 -10.175781 9.933594 -6.910156 C 8.6875 -7.199219 7.871094 -4.894531 9.167969 -3.886719 C 8.636719 -2.925781 7.34375 -2.015625 5.902344 -1.96875 C 3.933594 -1.917969 2.496094 -3.597656 3.40625 -6.910156 C 3.597656 -7.628906 1.777344 -8.160156 1.390625 -7.054688 C -0.238281 -2.589844 2.113281 0.382812 5.472656 0.433594 Z M 5.472656 0.433594 "/>
            </g>
        </g>
    </g>
    <g fill="#a7867c" fill-opacity="1">
        <g transform="translate(149.485878, 260.449876)">
            <g>
                <path d="M 7.199219 13.964844 C 10.558594 14.109375 12.863281 12.09375 14.398438 8.6875 C 15.359375 6.574219 16.03125 3.695312 16.796875 0.144531 C 20.203125 -1.105469 26.203125 -2.976562 28.941406 -10.65625 C 29.179688 -11.328125 27.835938 -11.855469 27.644531 -11.421875 C 25.484375 -6.046875 21.070312 -3.023438 17.421875 -2.207031 C 20.445312 -13.292969 23.804688 -26.875 25.4375 -32.25 C 25.820312 -33.449219 23.371094 -34.265625 22.652344 -32.585938 C 16.75 -25.339844 7.871094 -26.203125 6.429688 -19.964844 C 5.902344 -17.660156 6.671875 -14.253906 11.230469 -13.871094 C 12.476562 -13.726562 12.574219 -15.886719 11.613281 -15.980469 C 9.261719 -16.222656 9.070312 -17.902344 9.40625 -19.53125 C 10.175781 -23.371094 16.652344 -23.851562 21.742188 -29.179688 C 18.765625 -18.140625 18.1875 -15.742188 14.300781 -1.007812 C 9.214844 0.671875 3.792969 2.253906 2.351562 7.292969 C 1.34375 11.183594 3.933594 13.820312 7.199219 13.964844 Z M 7.246094 11.519531 C 5.472656 11.46875 4.128906 9.886719 5.183594 7.246094 C 6.335938 4.320312 10.414062 2.351562 13.726562 1.199219 C 12.910156 5.277344 12.285156 6.957031 11.804688 7.964844 C 10.605469 10.511719 8.78125 11.566406 7.246094 11.519531 Z M 7.246094 11.519531 "/>
            </g>
        </g>
    </g>
    <g fill="#a7867c" fill-opacity="1">
        <g transform="translate(177.17512, 260.449876)">
            <g>
                <path d="M 9.839844 -20.15625 C 4.078125 -19.148438 -0.335938 -12.863281 -1.34375 -7.582031 C -2.207031 -3.167969 -0.816406 0.527344 3.167969 0.433594 C 6.621094 0.335938 8.636719 -2.6875 10.558594 -5.808594 C 9.742188 -2.160156 11.277344 0 13.34375 0 C 17.710938 0 20.972656 -5.519531 23.132812 -10.605469 C 23.421875 -11.328125 21.980469 -11.902344 21.835938 -11.421875 C 19.867188 -6.285156 16.414062 -2.207031 14.253906 -2.207031 C 13.054688 -2.207031 12.957031 -3.359375 13.292969 -5.421875 C 13.773438 -8.398438 15.023438 -12.671875 15.644531 -15.023438 C 15.886719 -15.933594 13.292969 -16.703125 13.054688 -15.597656 C 11.132812 -6.863281 4.894531 0.0976562 2.449219 -2.449219 C 0.960938 -3.984375 1.488281 -8.445312 3.40625 -11.804688 C 5.183594 -14.925781 7.726562 -17.277344 10.367188 -17.851562 C 12.335938 -18.332031 14.828125 -17.710938 16.894531 -16.125 C 17.515625 -15.550781 19.148438 -17.230469 18.621094 -17.757812 C 16.171875 -20.203125 12.621094 -20.683594 9.839844 -20.15625 Z M 9.839844 -20.15625 "/>
            </g>
        </g>
    </g>
    <g fill="#a7867c" fill-opacity="1">
        <g transform="translate(199.057778, 260.449876)">
            <g>
                <path d="M 4.847656 0.382812 C 7.726562 0.433594 10.320312 -0.960938 12.335938 -3.167969 C 15.742188 -2.304688 19.675781 -3.214844 22.652344 -10.605469 C 22.941406 -11.328125 21.5 -11.902344 21.355469 -11.421875 C 19.148438 -5.664062 16.171875 -4.367188 13.628906 -4.65625 C 17.46875 -11.664062 17.710938 -20.109375 11.085938 -20.347656 C 8.589844 -20.445312 6.046875 -18.957031 4.222656 -17.324219 C 5.375 -21.261719 7.773438 -28.796875 9.167969 -31.820312 C 9.648438 -32.875 6.957031 -33.546875 6.671875 -32.777344 C 5.230469 -29.613281 1.726562 -20.011719 0.046875 -12.140625 C -1.34375 -5.566406 -1.246094 0.289062 4.847656 0.382812 Z M 5.183594 -1.917969 C 0.144531 -1.96875 2.449219 -11.328125 3.648438 -14.636719 C 5.613281 -16.414062 7.917969 -18.046875 10.320312 -17.996094 C 15.644531 -17.949219 12.957031 -9.648438 11.613281 -6.765625 C 10.414062 -7.488281 9.167969 -5.757812 10.175781 -4.414062 C 8.925781 -2.878906 7.246094 -1.871094 5.183594 -1.917969 Z M 5.183594 -1.917969 "/>
            </g>
        </g>
    </g>
    <g fill="#a7867c" fill-opacity="1">
        <g transform="translate(220.460552, 260.449876)">
            <g>
                <path d="M 10.460938 -20.347656 C 4.992188 -20.109375 0.191406 -14.828125 -0.769531 -8.589844 C -1.824219 -1.871094 1.582031 0.433594 5.183594 0.433594 C 8.300781 0.433594 10.703125 -0.960938 12.621094 -3.214844 C 16.171875 -2.160156 20.0625 -3.457031 22.941406 -10.605469 C 23.226562 -11.328125 21.835938 -11.855469 21.644531 -11.421875 C 19.195312 -5.183594 16.316406 -4.464844 13.871094 -4.65625 C 17.613281 -10.941406 18.523438 -20.683594 10.460938 -20.347656 Z M 10.269531 -17.996094 C 15.070312 -18.285156 14.300781 -11.664062 11.855469 -6.71875 C 10.796875 -7.34375 9.40625 -5.808594 10.460938 -4.464844 C 9.167969 -2.925781 7.4375 -1.917969 5.664062 -1.917969 C 2.449219 -1.917969 1.824219 -5.183594 2.253906 -8.351562 C 2.785156 -12.238281 6.335938 -17.757812 10.269531 -17.996094 Z M 10.269531 -17.996094 "/>
            </g>
        </g>
    </g>
    <g fill="#a7867c" fill-opacity="1">
        <g transform="translate(242.151258, 260.449876)">
            <g>
                <path d="M 12 -20.347656 C 8.589844 -20.398438 5.136719 -16.460938 3.359375 -13.773438 C 3.933594 -15.789062 4.128906 -16.558594 4.703125 -18.859375 C 4.992188 -20.0625 2.207031 -20.589844 1.917969 -19.339844 C 0.0976562 -11.664062 -1.054688 -7.535156 -2.734375 -1.105469 C -3.121094 0.335938 0.046875 0.289062 0.238281 -0.574219 C 1.152344 -4.800781 1.390625 -5.757812 2.734375 -10.320312 C 4.992188 -14.109375 8.925781 -17.851562 11.277344 -17.804688 C 13.246094 -17.757812 12.765625 -15.359375 12.382812 -13.773438 C 11.664062 -10.75 10.175781 -5.183594 10.03125 -3.40625 C 9.839844 -0.910156 10.894531 0.480469 13.246094 0.480469 C 17.179688 0.480469 20.589844 -5.949219 22.507812 -10.605469 C 22.796875 -11.328125 21.40625 -11.902344 21.210938 -11.421875 C 19.195312 -6.238281 15.886719 -1.777344 13.726562 -1.777344 C 12.238281 -1.777344 12.910156 -4.175781 13.292969 -5.902344 C 13.871094 -8.351562 14.828125 -10.796875 15.40625 -13.246094 C 16.367188 -17.230469 15.597656 -20.300781 12 -20.347656 Z M 12 -20.347656 "/>
            </g>
        </g>
    </g>
    <g fill="#a7867c" fill-opacity="1">
        <g transform="translate(263.410077, 260.449876)">
            <g>
                <path d="M 10.75 -20.300781 C 6.527344 -20.589844 1.824219 -17.230469 -0.144531 -11.328125 C -2.0625 -5.613281 0.046875 0 6.382812 0.480469 C 9.597656 0.71875 16.558594 0 20.539062 -10.605469 C 20.78125 -11.277344 19.4375 -11.902344 19.246094 -11.421875 C 16.125 -3.503906 10.269531 -1.246094 6.480469 -1.917969 C 3.167969 -2.496094 1.632812 -5.375 2.398438 -8.972656 C 8.109375 -7.199219 12.8125 -8.878906 14.734375 -12.671875 C 16.367188 -15.886719 15.308594 -20.011719 10.75 -20.300781 Z M 10.175781 -18.046875 C 13.148438 -18.046875 13.054688 -15.308594 11.804688 -13.101562 C 10.320312 -10.460938 7.152344 -9.789062 2.832031 -10.75 C 3.886719 -14.589844 7.390625 -18.046875 10.175781 -18.046875 Z M 10.175781 -18.046875 "/>
            </g>
        </g>
    </g>
    <g fill="#a7867c" fill-opacity="1">
        <g transform="translate(282.701369, 260.449876)">
            <g>
                <path d="M 5.472656 0.433594 C 7.773438 0.480469 10.222656 -0.71875 11.46875 -2.878906 C 14.492188 -2.589844 17.949219 -4.269531 20.492188 -10.605469 C 20.78125 -11.277344 19.390625 -11.902344 19.195312 -11.421875 C 17.085938 -6.046875 14.542969 -4.558594 12.191406 -4.558594 C 13.773438 -9.933594 9.359375 -13.535156 9.117188 -20.15625 C 10.511719 -21.546875 8.78125 -23.515625 6.335938 -21.453125 C 3.648438 -19.246094 1.390625 -15.023438 -0.910156 -9.359375 C -1.105469 -8.878906 0.191406 -8.207031 0.382812 -8.6875 C 2.6875 -13.917969 4.078125 -16.988281 6.816406 -19.726562 C 6.621094 -14.925781 10.320312 -10.175781 9.933594 -6.910156 C 8.6875 -7.199219 7.871094 -4.894531 9.167969 -3.886719 C 8.636719 -2.925781 7.34375 -2.015625 5.902344 -1.96875 C 3.933594 -1.917969 2.496094 -3.597656 3.40625 -6.910156 C 3.597656 -7.628906 1.777344 -8.160156 1.390625 -7.054688 C -0.238281 -2.589844 2.113281 0.382812 5.472656 0.433594 Z M 5.472656 0.433594 "/>
            </g>
        </g>
    </g>
    <g clip-path="url(#baaafeb323)">
        <path fill="#000000"
              d="M 109.234375 153.039062 C 105.683594 152.289062 103.25 155.71875 100.332031 157.058594 C 96.945312 158.609375 94.105469 155.925781 91.582031 153.980469 C 89.304688 152.226562 86.265625 150.53125 83.664062 152.761719 C 82.371094 153.875 81.847656 155.625 81.632812 157.261719 C 81.488281 158.382812 81.46875 159.511719 81.511719 160.644531 C 79.597656 157.867188 77.015625 154.820312 73.59375 155.78125 C 72.417969 156.113281 71.375 156.886719 70.890625 157.933594 C 70.152344 156.335938 68.980469 154.773438 67.183594 154.816406 C 64.855469 154.871094 64.121094 157.359375 64.195312 159.304688 C 64.25 160.648438 64.632812 161.953125 65.039062 163.226562 C 65.363281 164.242188 65.730469 165.242188 66.148438 166.222656 C 64.335938 166.5 62.660156 167.449219 61.941406 169.222656 C 61.234375 170.96875 61.652344 173.140625 63.070312 174.316406 C 60.894531 175.078125 59.324219 177.171875 59.03125 179.5 C 58.632812 182.648438 60.351562 185.722656 62.621094 187.773438 C 67.160156 191.878906 74.148438 192.503906 79.25 189.097656 C 81.988281 187.269531 84.039062 184.511719 84.953125 181.339844 C 85.109375 180.785156 84.253906 180.550781 84.09375 181.101562 C 82.632812 186.179688 77.988281 190.105469 72.691406 190.417969 C 67.347656 190.734375 61.195312 187.40625 60.011719 181.835938 C 59.390625 178.910156 61 175.300781 64.242188 174.9375 C 64.738281 174.882812 64.851562 174.242188 64.363281 174.0625 C 62.605469 173.417969 62.105469 171.113281 62.777344 169.515625 C 63.414062 168 64.929688 167.246094 66.511719 167.070312 C 66.609375 167.277344 66.703125 167.488281 66.804688 167.695312 C 68.085938 170.394531 69.714844 172.921875 71.625 175.214844 C 72.582031 176.359375 73.609375 177.445312 74.707031 178.457031 C 75.675781 179.351562 76.726562 180.40625 77.921875 180.992188 C 79.308594 181.675781 82.335938 182 82.066406 179.589844 C 81.988281 178.871094 81.523438 178.261719 81.128906 177.683594 C 80.621094 176.9375 80.09375 176.207031 79.550781 175.488281 C 78.574219 174.199219 77.550781 172.949219 76.46875 171.75 C 74.507812 169.574219 72.292969 167.285156 69.410156 166.4375 C 68.679688 166.222656 67.878906 166.121094 67.078125 166.140625 C 66.523438 164.855469 66.042969 163.539062 65.652344 162.195312 C 65.152344 160.472656 64.367188 157.398438 66.117188 156.078125 C 68.367188 154.382812 70.117188 158.136719 70.632812 159.746094 C 70.8125 160.300781 71.578125 160.066406 71.492188 159.507812 C 71.15625 157.335938 73.976562 156.136719 75.722656 156.609375 C 78.117188 157.253906 79.648438 159.625 80.996094 161.53125 C 81.203125 161.824219 81.410156 162.117188 81.617188 162.417969 C 81.648438 162.789062 81.679688 163.160156 81.707031 163.53125 C 82.101562 168.132812 83.078125 173.121094 86.765625 176.253906 C 87.066406 176.511719 87.488281 176.332031 87.523438 175.9375 C 87.941406 171.058594 85.523438 166.605469 82.882812 162.695312 C 82.75 162.496094 82.609375 162.285156 82.464844 162.070312 C 82.382812 160.929688 82.347656 159.785156 82.394531 158.65625 C 82.46875 156.980469 82.746094 155.046875 83.914062 153.753906 C 86.285156 151.132812 89.476562 153.449219 91.582031 155.105469 C 93.792969 156.84375 96.308594 158.964844 99.320312 158.332031 C 101.089844 157.964844 102.558594 156.78125 103.988281 155.746094 C 105.324219 154.78125 106.832031 153.699219 108.527344 153.835938 C 106.929688 158.847656 104.453125 163.574219 101.203125 167.710938 C 97.710938 172.15625 93.277344 175.632812 89.128906 179.421875 C 81.820312 186.101562 75.980469 194.308594 71.972656 203.378906 C 68.011719 212.339844 65.804688 222.082031 65.644531 231.886719 C 65.601562 234.347656 65.691406 236.808594 65.914062 239.257812 C 66.101562 241.304688 66.296875 243.457031 67.367188 245.257812 C 68.34375 246.898438 70.105469 247.839844 71.972656 247.070312 C 72.460938 246.867188 72.90625 246.578125 73.316406 246.242188 C 71.949219 250.152344 70.433594 254.007812 68.539062 257.707031 C 68.1875 258.386719 67.824219 259.058594 67.449219 259.722656 C 66.839844 257.082031 65.546875 254.554688 64.019531 252.253906 C 62.488281 249.945312 60.742188 247.792969 59.101562 245.566406 C 57.375 243.230469 55.730469 240.828125 54.257812 238.320312 C 52.539062 235.394531 51.148438 232.351562 50.0625 229.195312 C 50.355469 229.15625 50.609375 228.859375 50.398438 228.550781 C 50.046875 228.039062 49.703125 227.523438 49.367188 227.003906 C 48.882812 225.355469 48.476562 223.675781 48.148438 221.964844 C 47.039062 216.117188 46.640625 210.171875 45.835938 204.28125 C 45.09375 198.839844 44.132812 193.050781 41.40625 188.207031 C 40.234375 186.132812 38.535156 183.84375 36.347656 182.773438 C 34.433594 181.835938 32.574219 182.644531 31.734375 184.542969 C 30.859375 186.523438 31.058594 188.726562 31.265625 190.816406 C 31.523438 193.484375 31.933594 196.136719 32.492188 198.753906 C 34.75 209.320312 39.410156 219.351562 46.03125 227.867188 C 46.839844 228.910156 47.679688 229.925781 48.542969 230.917969 C 48.839844 231.261719 49.402344 230.898438 49.285156 230.484375 C 48.957031 229.324219 48.628906 228.164062 48.300781 227.003906 C 48.378906 227.128906 48.460938 227.253906 48.542969 227.375 C 49.339844 230.132812 50.355469 232.820312 51.65625 235.417969 C 54.09375 240.277344 57.285156 244.652344 60.554688 248.96875 C 63.226562 252.492188 66.167969 256.449219 66.820312 260.9375 C 66.820312 260.96875 66.824219 261 66.832031 261.027344 C 66.910156 261.582031 66.953125 262.144531 66.953125 262.714844 C 66.964844 267.796875 63.59375 271.914062 60.121094 275.246094 C 59.246094 276.085938 58.339844 276.902344 57.429688 277.707031 C 57 278.085938 57.628906 278.714844 58.058594 278.335938 C 61.75 275.070312 65.707031 271.445312 67.242188 266.589844 C 67.832031 264.730469 67.933594 262.882812 67.691406 261.082031 C 70.480469 256.324219 72.507812 251.226562 74.3125 246.039062 C 78.230469 246.382812 81.101562 242.53125 83.335938 239.851562 C 86.1875 236.441406 88.902344 232.910156 91.46875 229.277344 C 94.089844 225.566406 96.558594 221.742188 98.859375 217.824219 C 100.011719 215.867188 101.125 213.882812 102.195312 211.875 C 103.117188 210.144531 104.265625 208.347656 104.730469 206.417969 C 105.074219 204.992188 104.9375 203.296875 103.515625 202.519531 C 101.882812 201.625 99.9375 202.605469 98.476562 203.402344 C 95.160156 205.195312 92.230469 207.652344 89.730469 210.464844 C 84.617188 216.222656 81.222656 223.324219 78.605469 230.511719 C 76.949219 235.054688 75.535156 239.699219 73.984375 244.285156 C 73.90625 244.394531 73.820312 244.503906 73.714844 244.613281 C 73.265625 245.101562 72.78125 245.578125 72.21875 245.9375 C 71.28125 246.535156 70.117188 246.675781 69.175781 246.007812 C 67.5 244.816406 67.121094 242.3125 66.917969 240.425781 C 66.660156 238.058594 66.53125 235.675781 66.519531 233.292969 C 66.484375 223.628906 68.472656 213.972656 72.203125 205.070312 C 75.921875 196.199219 81.390625 188.054688 88.320312 181.398438 C 92.296875 177.578125 96.746094 174.257812 100.382812 170.085938 C 103.722656 166.261719 106.394531 161.875 108.285156 157.15625 C 108.753906 155.988281 109.167969 154.796875 109.539062 153.589844 C 109.609375 153.367188 109.460938 153.089844 109.226562 153.039062 Z M 68.929688 167.230469 C 71.34375 167.847656 73.265625 169.632812 74.933594 171.394531 C 76.796875 173.359375 78.511719 175.464844 80.058594 177.6875 C 80.519531 178.351562 82.007812 180.136719 80.601562 180.585938 C 79.800781 180.84375 78.753906 180.464844 78.066406 180.058594 C 77.105469 179.496094 76.242188 178.660156 75.425781 177.910156 C 74.566406 177.117188 73.742188 176.28125 72.96875 175.40625 C 70.742188 172.90625 68.890625 170.070312 67.476562 167.03125 C 67.980469 167.046875 68.472656 167.113281 68.929688 167.230469 Z M 86.683594 174.953125 C 84.066406 172.273438 83.132812 168.457031 82.726562 164.792969 C 82.691406 164.5 82.660156 164.207031 82.628906 163.910156 C 84.828125 167.253906 86.710938 170.925781 86.683594 174.953125 Z M 47.417969 223.863281 C 46.464844 220.496094 45.511719 217.125 44.558594 213.757812 C 43.023438 208.339844 41.617188 202.859375 39.933594 197.484375 C 39.25 195.300781 38.292969 193.144531 36.34375 191.828125 C 36.085938 191.652344 35.632812 191.878906 35.675781 192.214844 C 36.976562 202.445312 40.148438 212.398438 45.039062 221.46875 C 45.539062 222.402344 46.0625 223.324219 46.601562 224.234375 C 47.027344 225.738281 47.449219 227.242188 47.875 228.746094 C 41.742188 221.265625 37.179688 212.515625 34.523438 203.199219 C 33.8125 200.703125 33.234375 198.164062 32.800781 195.605469 C 32.382812 193.160156 31.972656 190.609375 31.96875 188.125 C 31.964844 186.511719 32.289062 183.785156 34.191406 183.304688 C 35.566406 182.957031 36.851562 184.058594 37.78125 184.933594 C 38.699219 185.792969 39.484375 186.78125 40.15625 187.84375 C 42.980469 192.328125 44 197.878906 44.773438 203.050781 C 45.597656 208.578125 45.980469 214.160156 46.855469 219.683594 C 47.113281 221.304688 47.421875 222.910156 47.792969 224.496094 C 47.667969 224.285156 47.542969 224.074219 47.417969 223.863281 Z M 45.546875 220.519531 C 42.25 214.296875 39.742188 207.65625 38.117188 200.785156 C 37.53125 198.304688 37.058594 195.792969 36.707031 193.269531 C 37.964844 194.507812 38.628906 196.25 39.144531 197.933594 C 39.917969 200.460938 40.59375 203.019531 41.3125 205.5625 C 42.726562 210.546875 44.136719 215.535156 45.546875 220.519531 Z M 76.199219 241.613281 C 80.511719 232.039062 86.667969 223.316406 94.242188 216.066406 C 94.460938 215.855469 94.683594 215.648438 94.90625 215.441406 C 90.050781 223.570312 84.632812 231.359375 78.6875 238.722656 C 77.832031 239.777344 76.964844 240.828125 76.089844 241.867188 C 76.125 241.785156 76.160156 241.699219 76.199219 241.613281 Z M 87.105469 215.292969 C 89.15625 212.292969 91.566406 209.523438 94.386719 207.222656 C 95.800781 206.070312 97.324219 205.042969 98.933594 204.171875 C 100.277344 203.445312 103.078125 202.0625 103.886719 204.226562 C 104.507812 205.890625 103.28125 207.875 102.550781 209.296875 C 101.570312 211.199219 100.554688 213.082031 99.503906 214.941406 C 97.398438 218.667969 95.148438 222.308594 92.757812 225.855469 C 90.089844 229.816406 87.25 233.65625 84.246094 237.363281 C 82.800781 239.148438 81.363281 240.996094 79.722656 242.601562 C 78.34375 243.957031 76.671875 245.160156 74.710938 245.160156 C 74.886719 244.765625 75.082031 244.417969 75.398438 244.050781 C 75.8125 243.570312 76.222656 243.085938 76.628906 242.601562 C 77.476562 241.597656 78.3125 240.582031 79.140625 239.5625 C 80.734375 237.597656 82.292969 235.601562 83.808594 233.574219 C 86.882812 229.480469 89.804688 225.265625 92.554688 220.945312 C 94.140625 218.460938 95.671875 215.941406 97.144531 213.390625 C 97.410156 212.9375 96.820312 212.523438 96.449219 212.847656 C 88.835938 219.492188 82.453125 227.542969 77.71875 236.488281 C 77.515625 236.871094 77.320312 237.253906 77.121094 237.640625 C 79.695312 229.847656 82.425781 222.132812 87.105469 215.292969 Z M 87.105469 215.292969 "
              fill-opacity="1" fill-rule="nonzero"/>
    </g>
    <g clip-path="url(#cd698d3675)">
        <path fill="#000000"
              d="M 124.160156 243.925781 C 123.980469 244.773438 124.804688 245.351562 125.125 246.046875 C 125.496094 246.855469 124.851562 247.53125 124.386719 248.128906 C 123.964844 248.671875 123.558594 249.398438 124.09375 250.015625 C 124.359375 250.324219 124.78125 250.449219 125.171875 250.5 C 125.441406 250.535156 125.710938 250.539062 125.984375 250.527344 C 125.316406 250.984375 124.585938 251.597656 124.816406 252.414062 C 124.898438 252.695312 125.082031 252.941406 125.332031 253.058594 C 124.949219 253.234375 124.574219 253.511719 124.585938 253.9375 C 124.601562 254.492188 125.195312 254.667969 125.664062 254.652344 C 125.984375 254.636719 126.296875 254.546875 126.601562 254.449219 C 126.84375 254.375 127.085938 254.285156 127.320312 254.1875 C 127.386719 254.617188 127.613281 255.015625 128.039062 255.1875 C 128.457031 255.355469 128.980469 255.257812 129.261719 254.917969 C 129.441406 255.4375 129.945312 255.808594 130.503906 255.878906 C 131.257812 255.976562 131.996094 255.566406 132.488281 255.027344 C 133.46875 253.945312 133.621094 252.28125 132.804688 251.066406 C 132.367188 250.414062 131.703125 249.925781 130.945312 249.710938 C 130.8125 249.671875 130.753906 249.875 130.886719 249.914062 C 132.105469 250.261719 133.046875 251.367188 133.121094 252.628906 C 133.195312 253.898438 132.398438 255.363281 131.0625 255.648438 C 130.363281 255.792969 129.496094 255.410156 129.410156 254.640625 C 129.398438 254.523438 129.242188 254.496094 129.199219 254.613281 C 129.046875 255.03125 128.492188 255.148438 128.109375 254.988281 C 127.746094 254.835938 127.566406 254.476562 127.523438 254.097656 C 127.574219 254.078125 127.625 254.054688 127.671875 254.03125 C 128.320312 253.726562 128.925781 253.335938 129.476562 252.882812 C 129.75 252.65625 130.011719 252.410156 130.253906 252.148438 C 130.46875 251.917969 130.71875 251.667969 130.859375 251.382812 C 131.023438 251.054688 131.101562 250.332031 130.523438 250.394531 C 130.351562 250.414062 130.207031 250.523438 130.066406 250.617188 C 129.890625 250.738281 129.714844 250.867188 129.542969 250.996094 C 129.230469 251.226562 128.933594 251.472656 128.644531 251.730469 C 128.125 252.195312 127.574219 252.722656 127.371094 253.410156 C 127.320312 253.582031 127.296875 253.773438 127.300781 253.964844 C 126.992188 254.097656 126.675781 254.210938 126.355469 254.304688 C 125.941406 254.421875 125.207031 254.609375 124.890625 254.195312 C 124.480469 253.65625 125.382812 253.242188 125.769531 253.117188 C 125.902344 253.074219 125.84375 252.894531 125.710938 252.914062 C 125.191406 252.992188 124.902344 252.324219 125.015625 251.90625 C 125.171875 251.335938 125.738281 250.972656 126.195312 250.652344 C 126.265625 250.601562 126.335938 250.550781 126.410156 250.503906 C 126.496094 250.496094 126.585938 250.488281 126.675781 250.480469 C 127.777344 250.386719 128.972656 250.15625 129.726562 249.277344 C 129.785156 249.207031 129.746094 249.105469 129.648438 249.097656 C 128.480469 248.996094 127.414062 249.574219 126.476562 250.203125 C 126.425781 250.234375 126.375 250.265625 126.324219 250.300781 C 126.050781 250.320312 125.777344 250.328125 125.507812 250.316406 C 125.105469 250.300781 124.640625 250.234375 124.332031 249.957031 C 123.703125 249.390625 124.257812 248.632812 124.65625 248.128906 C 125.070312 247.605469 125.582031 247.003906 125.429688 246.289062 C 125.339844 245.867188 125.058594 245.515625 124.808594 245.175781 C 124.578125 244.859375 124.320312 244.5 124.351562 244.09375 C 125.554688 244.476562 126.683594 245.066406 127.675781 245.839844 C 128.742188 246.671875 129.578125 247.726562 130.484375 248.714844 C 132.085938 250.453125 134.054688 251.84375 136.226562 252.800781 C 138.375 253.742188 140.710938 254.269531 143.0625 254.304688 C 143.652344 254.316406 144.242188 254.296875 144.828125 254.242188 C 145.316406 254.199219 145.832031 254.152344 146.265625 253.894531 C 146.660156 253.664062 146.882812 253.242188 146.699219 252.800781 C 146.652344 252.683594 146.582031 252.578125 146.5 252.480469 C 147.441406 252.804688 148.363281 253.164062 149.25 253.617188 C 149.414062 253.699219 149.574219 253.785156 149.734375 253.875 C 149.101562 254.019531 148.496094 254.328125 147.941406 254.691406 C 147.390625 255.058594 146.875 255.472656 146.339844 255.863281 C 145.78125 256.273438 145.203125 256.667969 144.601562 257.015625 C 143.902344 257.425781 143.171875 257.757812 142.414062 258.015625 C 142.40625 257.945312 142.335938 257.886719 142.261719 257.9375 C 142.136719 258.019531 142.015625 258.101562 141.890625 258.183594 C 141.496094 258.296875 141.09375 258.394531 140.683594 258.472656 C 139.28125 258.734375 137.855469 258.832031 136.445312 259.023438 C 135.140625 259.199219 133.75 259.429688 132.589844 260.078125 C 132.09375 260.355469 131.542969 260.761719 131.289062 261.28125 C 131.0625 261.738281 131.257812 262.179688 131.710938 262.378906 C 132.1875 262.589844 132.714844 262.539062 133.214844 262.492188 C 133.855469 262.429688 134.492188 262.332031 135.117188 262.199219 C 137.652344 261.660156 140.054688 260.550781 142.097656 258.976562 C 142.347656 258.785156 142.589844 258.582031 142.828125 258.378906 C 142.910156 258.308594 142.824219 258.171875 142.726562 258.199219 C 142.445312 258.28125 142.167969 258.355469 141.890625 258.4375 C 141.917969 258.417969 141.949219 258.398438 141.980469 258.378906 C 142.640625 258.1875 143.285156 257.945312 143.90625 257.636719 C 145.074219 257.054688 146.121094 256.296875 147.15625 255.519531 C 148 254.882812 148.949219 254.179688 150.023438 254.027344 C 150.03125 254.027344 150.039062 254.023438 150.046875 254.023438 C 150.179688 254.003906 150.3125 253.996094 150.449219 253.996094 C 151.667969 253.992188 152.65625 254.792969 153.453125 255.621094 C 153.65625 255.828125 153.851562 256.046875 154.042969 256.261719 C 154.136719 256.363281 154.285156 256.214844 154.195312 256.113281 C 153.410156 255.234375 152.542969 254.292969 151.378906 253.925781 C 150.933594 253.785156 150.492188 253.761719 150.058594 253.820312 C 148.917969 253.15625 147.695312 252.671875 146.453125 252.242188 C 146.535156 251.308594 145.613281 250.625 144.96875 250.09375 C 144.152344 249.414062 143.304688 248.769531 142.433594 248.15625 C 141.546875 247.53125 140.628906 246.945312 139.691406 246.398438 C 139.21875 246.125 138.746094 245.859375 138.265625 245.605469 C 137.847656 245.382812 137.417969 245.109375 136.957031 245 C 136.613281 244.917969 136.207031 244.949219 136.019531 245.289062 C 135.808594 245.679688 136.042969 246.140625 136.230469 246.488281 C 136.664062 247.277344 137.25 247.976562 137.925781 248.570312 C 139.304688 249.789062 141.007812 250.597656 142.730469 251.21875 C 143.820312 251.613281 144.933594 251.949219 146.03125 252.320312 C 146.058594 252.339844 146.085938 252.359375 146.113281 252.382812 C 146.230469 252.492188 146.34375 252.605469 146.429688 252.742188 C 146.570312 252.964844 146.605469 253.242188 146.445312 253.464844 C 146.160156 253.863281 145.558594 253.953125 145.109375 254.003906 C 144.539062 254.0625 143.96875 254.09375 143.398438 254.097656 C 141.082031 254.105469 138.765625 253.632812 136.632812 252.746094 C 134.507812 251.859375 132.554688 250.558594 130.957031 248.90625 C 130.042969 247.960938 129.246094 246.902344 128.246094 246.035156 C 127.332031 245.238281 126.277344 244.601562 125.148438 244.152344 C 124.867188 244.042969 124.582031 243.941406 124.292969 243.855469 C 124.238281 243.839844 124.171875 243.875 124.160156 243.929688 Z M 127.5625 253.523438 C 127.710938 252.949219 128.136719 252.492188 128.558594 252.09375 C 129.03125 251.652344 129.535156 251.242188 130.070312 250.875 C 130.226562 250.765625 130.65625 250.410156 130.765625 250.746094 C 130.824219 250.9375 130.734375 251.183594 130.636719 251.347656 C 130.5 251.578125 130.300781 251.78125 130.121094 251.976562 C 129.933594 252.183594 129.730469 252.378906 129.523438 252.5625 C 128.921875 253.09375 128.242188 253.535156 127.515625 253.871094 C 127.519531 253.75 127.535156 253.632812 127.5625 253.523438 Z M 129.414062 249.296875 C 128.769531 249.917969 127.855469 250.140625 126.976562 250.238281 C 126.90625 250.246094 126.835938 250.253906 126.765625 250.261719 C 127.566406 249.738281 128.449219 249.289062 129.414062 249.296875 Z M 141.136719 258.644531 C 140.328125 258.871094 139.523438 259.101562 138.714844 259.328125 C 137.417969 259.691406 136.101562 260.027344 134.8125 260.425781 C 134.289062 260.589844 133.773438 260.820312 133.457031 261.28125 C 133.417969 261.34375 133.472656 261.453125 133.550781 261.441406 C 136.003906 261.132812 138.390625 260.375 140.5625 259.210938 C 140.789062 259.09375 141.007812 258.96875 141.226562 258.839844 C 141.585938 258.738281 141.949219 258.636719 142.308594 258.535156 C 140.515625 259.996094 138.417969 261.082031 136.183594 261.714844 C 135.585938 261.886719 134.976562 262.023438 134.363281 262.125 C 133.777344 262.226562 133.167969 262.324219 132.570312 262.324219 C 132.183594 262.324219 131.53125 262.246094 131.414062 261.796875 C 131.332031 261.46875 131.597656 261.160156 131.804688 260.941406 C 132.011719 260.722656 132.25 260.535156 132.503906 260.375 C 133.578125 259.703125 134.910156 259.460938 136.148438 259.277344 C 137.472656 259.078125 138.8125 258.988281 140.136719 258.78125 C 140.523438 258.71875 140.910156 258.644531 141.289062 258.554688 C 141.238281 258.585938 141.1875 258.617188 141.136719 258.644531 Z M 140.335938 259.089844 C 138.84375 259.875 137.253906 260.472656 135.605469 260.859375 C 135.011719 261 134.410156 261.113281 133.804688 261.195312 C 134.101562 260.898438 134.519531 260.738281 134.921875 260.617188 C 135.527344 260.433594 136.140625 260.269531 136.75 260.097656 C 137.945312 259.761719 139.140625 259.425781 140.335938 259.089844 Z M 145.390625 251.792969 C 143.097656 250.765625 141.007812 249.300781 139.269531 247.496094 C 139.21875 247.445312 139.167969 247.390625 139.117188 247.339844 C 141.066406 248.496094 142.933594 249.785156 144.699219 251.199219 C 144.953125 251.40625 145.203125 251.609375 145.453125 251.820312 C 145.433594 251.808594 145.414062 251.800781 145.390625 251.792969 Z M 139.082031 249.195312 C 138.363281 248.707031 137.699219 248.132812 137.148438 247.464844 C 136.871094 247.125 136.625 246.761719 136.417969 246.378906 C 136.242188 246.058594 135.910156 245.394531 136.429688 245.199219 C 136.828125 245.050781 137.304688 245.34375 137.644531 245.519531 C 138.101562 245.753906 138.554688 245.992188 139 246.246094 C 139.890625 246.746094 140.765625 247.28125 141.617188 247.851562 C 142.5625 248.484375 143.484375 249.160156 144.375 249.878906 C 144.800781 250.222656 145.246094 250.5625 145.628906 250.953125 C 145.953125 251.28125 146.242188 251.679688 146.242188 252.148438 C 146.148438 252.105469 146.0625 252.058594 145.976562 251.984375 C 145.859375 251.886719 145.746094 251.789062 145.628906 251.691406 C 145.386719 251.488281 145.144531 251.289062 144.902344 251.09375 C 144.429688 250.714844 143.949219 250.34375 143.464844 249.980469 C 142.484375 249.25 141.472656 248.554688 140.4375 247.898438 C 139.84375 247.519531 139.238281 247.15625 138.625 246.804688 C 138.519531 246.742188 138.417969 246.882812 138.496094 246.972656 C 140.089844 248.785156 142.019531 250.304688 144.164062 251.429688 C 144.253906 251.480469 144.347656 251.527344 144.441406 251.574219 C 142.570312 250.960938 140.722656 250.308594 139.082031 249.195312 Z M 139.082031 249.195312 "
              fill-opacity="1" fill-rule="nonzero"/>
    </g>
    <g clip-path="url(#da5537accc)">
        <path fill="#000000"
              d="M 95.210938 243.925781 C 95.03125 244.773438 95.855469 245.351562 96.175781 246.046875 C 96.546875 246.855469 95.902344 247.53125 95.4375 248.128906 C 95.015625 248.671875 94.609375 249.398438 95.144531 250.015625 C 95.410156 250.324219 95.832031 250.449219 96.222656 250.5 C 96.492188 250.535156 96.765625 250.539062 97.035156 250.527344 C 96.371094 250.984375 95.640625 251.597656 95.871094 252.414062 C 95.949219 252.695312 96.132812 252.941406 96.386719 253.058594 C 96.003906 253.234375 95.628906 253.511719 95.636719 253.9375 C 95.652344 254.492188 96.246094 254.667969 96.714844 254.652344 C 97.035156 254.636719 97.347656 254.546875 97.652344 254.449219 C 97.898438 254.375 98.136719 254.285156 98.371094 254.1875 C 98.4375 254.617188 98.667969 255.015625 99.089844 255.1875 C 99.507812 255.355469 100.03125 255.257812 100.3125 254.917969 C 100.496094 255.4375 100.996094 255.808594 101.554688 255.878906 C 102.308594 255.976562 103.046875 255.566406 103.539062 255.027344 C 104.523438 253.945312 104.671875 252.28125 103.855469 251.066406 C 103.417969 250.414062 102.757812 249.925781 101.996094 249.710938 C 101.863281 249.671875 101.804688 249.875 101.9375 249.914062 C 103.15625 250.261719 104.097656 251.367188 104.171875 252.628906 C 104.246094 253.898438 103.449219 255.363281 102.113281 255.648438 C 101.414062 255.792969 100.546875 255.410156 100.460938 254.640625 C 100.449219 254.523438 100.292969 254.496094 100.25 254.613281 C 100.097656 255.03125 99.542969 255.148438 99.160156 254.988281 C 98.796875 254.835938 98.617188 254.476562 98.574219 254.097656 C 98.625 254.078125 98.675781 254.054688 98.726562 254.03125 C 99.371094 253.726562 99.976562 253.335938 100.527344 252.882812 C 100.800781 252.65625 101.0625 252.410156 101.304688 252.148438 C 101.519531 251.917969 101.773438 251.667969 101.914062 251.382812 C 102.078125 251.054688 102.152344 250.332031 101.578125 250.394531 C 101.402344 250.414062 101.257812 250.523438 101.121094 250.617188 C 100.941406 250.738281 100.765625 250.867188 100.59375 250.996094 C 100.285156 251.226562 99.984375 251.472656 99.695312 251.730469 C 99.175781 252.195312 98.628906 252.722656 98.421875 253.410156 C 98.371094 253.582031 98.347656 253.773438 98.351562 253.964844 C 98.042969 254.097656 97.730469 254.210938 97.40625 254.304688 C 96.992188 254.421875 96.257812 254.609375 95.941406 254.195312 C 95.535156 253.65625 96.433594 253.242188 96.820312 253.117188 C 96.953125 253.074219 96.894531 252.894531 96.761719 252.914062 C 96.242188 252.992188 95.953125 252.324219 96.066406 251.90625 C 96.222656 251.335938 96.789062 250.972656 97.246094 250.652344 C 97.316406 250.601562 97.386719 250.550781 97.460938 250.503906 C 97.550781 250.496094 97.636719 250.488281 97.726562 250.480469 C 98.828125 250.386719 100.027344 250.15625 100.777344 249.277344 C 100.839844 249.207031 100.796875 249.105469 100.699219 249.097656 C 99.53125 248.996094 98.464844 249.574219 97.527344 250.203125 C 97.480469 250.234375 97.429688 250.265625 97.375 250.300781 C 97.101562 250.320312 96.828125 250.328125 96.558594 250.316406 C 96.15625 250.300781 95.695312 250.234375 95.382812 249.957031 C 94.753906 249.390625 95.308594 248.632812 95.707031 248.128906 C 96.125 247.605469 96.632812 247.003906 96.480469 246.289062 C 96.394531 245.867188 96.109375 245.515625 95.859375 245.175781 C 95.628906 244.859375 95.371094 244.5 95.402344 244.09375 C 96.605469 244.476562 97.738281 245.066406 98.730469 245.839844 C 99.792969 246.671875 100.628906 247.726562 101.535156 248.714844 C 103.136719 250.453125 105.105469 251.84375 107.277344 252.800781 C 109.425781 253.742188 111.761719 254.269531 114.113281 254.304688 C 114.703125 254.316406 115.292969 254.296875 115.878906 254.242188 C 116.371094 254.199219 116.886719 254.152344 117.316406 253.894531 C 117.710938 253.664062 117.9375 253.242188 117.753906 252.800781 C 117.703125 252.683594 117.632812 252.578125 117.554688 252.480469 C 118.492188 252.804688 119.414062 253.164062 120.300781 253.617188 C 120.464844 253.699219 120.625 253.785156 120.785156 253.875 C 120.152344 254.019531 119.546875 254.328125 118.996094 254.691406 C 118.441406 255.058594 117.925781 255.472656 117.390625 255.863281 C 116.832031 256.273438 116.253906 256.667969 115.65625 257.015625 C 114.953125 257.425781 114.222656 257.757812 113.46875 258.015625 C 113.457031 257.945312 113.386719 257.886719 113.3125 257.9375 C 113.191406 258.019531 113.066406 258.101562 112.941406 258.183594 C 112.546875 258.296875 112.144531 258.394531 111.734375 258.472656 C 110.332031 258.734375 108.90625 258.832031 107.496094 259.023438 C 106.191406 259.199219 104.804688 259.429688 103.640625 260.078125 C 103.144531 260.355469 102.597656 260.761719 102.339844 261.28125 C 102.113281 261.738281 102.308594 262.179688 102.765625 262.378906 C 103.238281 262.589844 103.765625 262.539062 104.269531 262.492188 C 104.90625 262.429688 105.542969 262.332031 106.171875 262.199219 C 108.703125 261.660156 111.105469 260.550781 113.148438 258.976562 C 113.398438 258.785156 113.640625 258.582031 113.878906 258.378906 C 113.960938 258.308594 113.875 258.171875 113.777344 258.199219 C 113.5 258.28125 113.21875 258.355469 112.941406 258.4375 C 112.972656 258.417969 113 258.398438 113.03125 258.378906 C 113.691406 258.1875 114.335938 257.945312 114.960938 257.636719 C 116.125 257.054688 117.171875 256.296875 118.207031 255.519531 C 119.050781 254.882812 120 254.179688 121.078125 254.027344 C 121.082031 254.027344 121.089844 254.023438 121.097656 254.023438 C 121.230469 254.003906 121.367188 253.996094 121.503906 253.996094 C 122.71875 253.992188 123.707031 254.792969 124.507812 255.621094 C 124.707031 255.828125 124.902344 256.046875 125.09375 256.261719 C 125.1875 256.363281 125.335938 256.214844 125.246094 256.113281 C 124.464844 255.234375 123.59375 254.292969 122.429688 253.925781 C 121.984375 253.785156 121.542969 253.761719 121.109375 253.820312 C 119.96875 253.15625 118.75 252.671875 117.503906 252.242188 C 117.585938 251.308594 116.664062 250.625 116.023438 250.09375 C 115.203125 249.414062 114.359375 248.769531 113.488281 248.15625 C 112.597656 247.53125 111.679688 246.945312 110.742188 246.398438 C 110.273438 246.125 109.796875 245.859375 109.316406 245.605469 C 108.902344 245.382812 108.46875 245.109375 108.007812 245 C 107.664062 244.917969 107.257812 244.949219 107.074219 245.289062 C 106.859375 245.679688 107.09375 246.140625 107.285156 246.488281 C 107.714844 247.277344 108.304688 247.976562 108.976562 248.570312 C 110.359375 249.789062 112.058594 250.597656 113.78125 251.21875 C 114.871094 251.613281 115.984375 251.949219 117.085938 252.320312 C 117.109375 252.339844 117.136719 252.359375 117.164062 252.382812 C 117.28125 252.492188 117.394531 252.605469 117.480469 252.742188 C 117.625 252.964844 117.65625 253.242188 117.496094 253.464844 C 117.210938 253.863281 116.613281 253.953125 116.160156 254.003906 C 115.589844 254.0625 115.019531 254.09375 114.449219 254.097656 C 112.132812 254.105469 109.816406 253.632812 107.683594 252.746094 C 105.558594 251.859375 103.605469 250.558594 102.011719 248.90625 C 101.09375 247.960938 100.296875 246.902344 99.296875 246.035156 C 98.382812 245.238281 97.332031 244.601562 96.199219 244.152344 C 95.917969 244.042969 95.632812 243.941406 95.34375 243.855469 C 95.289062 243.839844 95.222656 243.875 95.210938 243.929688 Z M 98.613281 253.523438 C 98.761719 252.949219 99.191406 252.492188 99.613281 252.09375 C 100.082031 251.652344 100.585938 251.242188 101.121094 250.875 C 101.277344 250.765625 101.707031 250.410156 101.816406 250.746094 C 101.878906 250.9375 101.785156 251.183594 101.6875 251.347656 C 101.554688 251.578125 101.351562 251.78125 101.171875 251.976562 C 100.984375 252.183594 100.785156 252.378906 100.574219 252.5625 C 99.972656 253.09375 99.292969 253.535156 98.566406 253.871094 C 98.570312 253.75 98.585938 253.632812 98.613281 253.523438 Z M 100.464844 249.296875 C 99.824219 249.917969 98.90625 250.140625 98.03125 250.238281 C 97.960938 250.246094 97.890625 250.253906 97.816406 250.261719 C 98.621094 249.738281 99.5 249.289062 100.464844 249.296875 Z M 112.1875 258.644531 C 111.382812 258.871094 110.574219 259.101562 109.765625 259.328125 C 108.46875 259.691406 107.152344 260.027344 105.867188 260.425781 C 105.34375 260.589844 104.824219 260.820312 104.511719 261.28125 C 104.46875 261.34375 104.523438 261.453125 104.601562 261.441406 C 107.054688 261.132812 109.441406 260.375 111.613281 259.210938 C 111.839844 259.09375 112.058594 258.96875 112.277344 258.839844 C 112.640625 258.738281 113 258.636719 113.359375 258.535156 C 111.566406 259.996094 109.46875 261.082031 107.234375 261.714844 C 106.636719 261.886719 106.027344 262.023438 105.414062 262.125 C 104.828125 262.226562 104.21875 262.324219 103.621094 262.324219 C 103.234375 262.324219 102.582031 262.246094 102.46875 261.796875 C 102.382812 261.46875 102.648438 261.160156 102.855469 260.941406 C 103.0625 260.722656 103.300781 260.535156 103.554688 260.375 C 104.628906 259.703125 105.960938 259.460938 107.199219 259.277344 C 108.523438 259.078125 109.863281 258.988281 111.1875 258.78125 C 111.574219 258.71875 111.960938 258.644531 112.339844 258.554688 C 112.289062 258.585938 112.238281 258.617188 112.1875 258.644531 Z M 111.386719 259.089844 C 109.894531 259.875 108.304688 260.472656 106.65625 260.859375 C 106.0625 261 105.460938 261.113281 104.855469 261.195312 C 105.152344 260.898438 105.570312 260.738281 105.972656 260.617188 C 106.578125 260.433594 107.191406 260.269531 107.800781 260.097656 C 108.996094 259.761719 110.191406 259.425781 111.386719 259.089844 Z M 116.445312 251.792969 C 114.148438 250.765625 112.058594 249.300781 110.320312 247.496094 C 110.269531 247.445312 110.21875 247.390625 110.171875 247.339844 C 112.117188 248.496094 113.984375 249.785156 115.75 251.199219 C 116.003906 251.40625 116.253906 251.609375 116.503906 251.820312 C 116.484375 251.808594 116.464844 251.800781 116.445312 251.792969 Z M 110.136719 249.195312 C 109.414062 248.707031 108.75 248.132812 108.199219 247.464844 C 107.921875 247.125 107.675781 246.761719 107.46875 246.378906 C 107.292969 246.058594 106.964844 245.394531 107.480469 245.199219 C 107.878906 245.050781 108.355469 245.34375 108.695312 245.519531 C 109.152344 245.753906 109.605469 245.992188 110.050781 246.246094 C 110.945312 246.746094 111.816406 247.28125 112.667969 247.851562 C 113.617188 248.484375 114.535156 249.160156 115.425781 249.878906 C 115.851562 250.222656 116.296875 250.5625 116.679688 250.953125 C 117.003906 251.28125 117.292969 251.679688 117.292969 252.148438 C 117.199219 252.105469 117.117188 252.058594 117.027344 251.984375 C 116.914062 251.886719 116.796875 251.789062 116.679688 251.691406 C 116.441406 251.488281 116.195312 251.289062 115.953125 251.09375 C 115.480469 250.714844 115.003906 250.34375 114.515625 249.980469 C 113.535156 249.25 112.523438 248.554688 111.488281 247.898438 C 110.894531 247.519531 110.289062 247.15625 109.679688 246.804688 C 109.570312 246.742188 109.472656 246.882812 109.546875 246.972656 C 111.140625 248.785156 113.070312 250.304688 115.214844 251.429688 C 115.308594 251.480469 115.398438 251.527344 115.492188 251.574219 C 113.625 250.960938 111.773438 250.308594 110.132812 249.195312 Z M 110.136719 249.195312 "
              fill-opacity="1" fill-rule="nonzero"/>
    </g>
</svg>
