<?xml version="1.0" standalone="no"?>
<!DOCTYPE svg PUBLIC "-//W3C//DTD SVG 20010904//EN"
 "http://www.w3.org/TR/2001/REC-SVG-20010904/DTD/svg10.dtd">
<svg version="1.0" xmlns="http://www.w3.org/2000/svg"
 width="700.000000pt" height="700.000000pt" viewBox="0 0 700.000000 700.000000"
 preserveAspectRatio="xMidYMid meet">
<metadata>
Created by potrace 1.14, written by Peter Selinger 2001-2017
</metadata>
<g transform="translate(0.000000,700.000000) scale(0.100000,-0.100000)"
fill="#000000" stroke="none">
<path d="M2503 6591 c-39 -24 -45 -34 -45 -77 0 -69 70 -110 136 -79 46 22 61
63 42 121 -14 44 -86 63 -133 35z"/>
<path d="M2920 6453 c-58 -17 -92 -60 -82 -109 7 -36 50 -74 84 -74 86 0 134
90 81 152 -18 20 -62 37 -83 31z"/>
<path d="M1995 6398 c-59 -34 -62 -124 -4 -153 41 -22 80 -18 114 9 63 51 24
156 -58 156 -18 0 -41 -6 -52 -12z"/>
<path d="M3697 6360 c-28 -22 -32 -70 -6 -95 32 -32 102 -21 116 19 25 74 -48
125 -110 76z"/>
<path d="M3305 6359 c-40 -11 -65 -46 -65 -91 0 -87 124 -121 170 -46 45 74
-20 160 -105 137z"/>
<path d="M1359 6321 c-20 -20 -29 -39 -29 -61 0 -22 9 -41 29 -61 77 -77 195
5 150 104 -24 54 -105 63 -150 18z"/>
<path d="M4070 6292 c-83 -13 -102 -130 -28 -168 63 -32 138 11 138 80 0 58
-49 97 -110 88z"/>
<path d="M2117 6149 c-30 -18 -47 -63 -37 -99 13 -45 27 -58 66 -66 99 -18
159 96 83 159 -23 19 -84 22 -112 6z"/>
<path d="M1073 6118 c-39 -10 -64 -44 -65 -89 -2 -48 50 -92 100 -85 44 6 35
2 62 26 31 27 32 91 1 124 -27 29 -54 35 -98 24z"/>
<path d="M1558 6016 c-33 -17 -46 -61 -27 -94 20 -36 78 -43 108 -13 55 55
-12 141 -81 107z"/>
<path d="M2557 6002 c-77 -47 -43 -169 46 -165 9 0 24 1 32 2 32 2 65 48 65
89 0 71 -80 112 -143 74z"/>
<path d="M3112 6005 c-56 -24 -55 -96 1 -120 51 -21 97 7 97 60 0 53 -46 81
-98 60z"/>
<path d="M4385 5982 c-67 -14 -95 -75 -63 -139 28 -56 133 -52 162 6 36 69
-23 148 -99 133z"/>
<path d="M3759 5841 c-72 -72 3 -186 97 -146 37 15 52 33 57 70 13 89 -90 139
-154 76z"/>
<path d="M3373 5800 c-51 -21 -69 -108 -30 -147 40 -41 133 -27 156 24 36 79
-43 156 -126 123z"/>
<path d="M1760 5774 c-68 -24 -91 -72 -64 -131 27 -56 109 -65 152 -17 46 52
19 134 -48 148 -14 3 -32 3 -40 0z"/>
<path d="M923 5730 c-18 -11 -34 -29 -34 -40 -1 -11 -2 -26 -3 -32 -11 -78
101 -122 159 -63 36 35 34 88 -4 126 -35 35 -72 37 -118 9z"/>
<path d="M4238 5665 c-2 -2 -44 -7 -93 -10 -50 -3 -97 -8 -105 -10 -8 -3 -33
-7 -55 -10 -97 -14 -296 -74 -435 -132 -562 -231 -1128 -703 -1471 -1228 -91
-139 -79 -125 -148 -171 -75 -51 -113 -53 -175 -12 -133 90 -151 94 -196 49
-21 -21 -31 -42 -36 -81 l-7 -52 -25 32 c-44 56 -110 70 -153 34 -13 -12 -19
-10 -39 11 -66 70 -120 -10 -86 -128 20 -69 21 -64 -9 -71 -38 -10 -63 -67
-47 -109 11 -28 10 -34 -7 -47 -35 -28 -49 -63 -46 -113 2 -26 9 -55 17 -64
11 -14 10 -15 -12 -8 -40 14 -80 9 -109 -12 -38 -29 -42 -99 -7 -132 65 -62
173 -9 159 78 -2 14 -9 31 -16 40 -6 9 9 -2 34 -24 90 -78 216 -86 315 -19 37
26 38 26 21 2 -95 -128 -153 -236 -202 -373 -29 -79 -41 -125 -60 -225 -11
-55 -19 -180 -18 -265 2 -166 34 -237 103 -229 16 2 30 -1 30 -6 0 -10 -90
-220 -95 -220 -1 0 -15 26 -31 58 -15 31 -71 118 -124 192 -93 130 -170 269
-170 308 0 10 -4 22 -9 28 -15 16 -43 155 -56 279 -15 138 -37 278 -55 345
-46 170 -171 278 -223 191 -26 -45 -16 -173 27 -335 20 -75 21 -86 7 -80 -9 4
-34 8 -55 7 -67 0 -108 -73 -75 -135 13 -24 71 -50 96 -42 41 13 61 28 72 51
11 23 14 19 61 -74 52 -104 161 -258 182 -258 11 0 38 -45 38 -61 0 -3 -12 -2
-27 1 -94 17 -155 -87 -90 -152 45 -45 127 -30 151 29 l13 30 68 -98 c38 -55
72 -101 76 -104 3 -3 22 -30 41 -60 45 -70 70 -143 67 -195 -3 -58 -53 -146
-122 -215 -33 -34 -57 -64 -53 -67 11 -12 134 125 161 180 16 34 28 77 30 112
2 31 9 63 16 71 16 19 61 117 84 182 17 46 24 54 57 64 43 13 84 48 149 129
l45 56 -2 -131 c-2 -72 2 -153 7 -181 5 -27 12 -62 14 -77 24 -130 141 -391
250 -553 59 -88 119 -170 135 -185 3 -3 30 -34 60 -70 265 -316 691 -646 1023
-791 125 -55 281 -116 378 -147 143 -47 238 -67 449 -98 69 -10 388 -12 455
-4 33 5 87 11 120 15 33 3 67 8 75 10 8 2 31 7 50 10 154 26 389 100 550 173
152 69 186 86 278 139 297 171 564 389 802 653 240 267 379 518 484 870 25 84
53 212 62 280 2 19 7 46 9 60 27 151 27 600 0 752 -3 13 -7 39 -9 58 -12 87
-19 124 -52 257 -78 314 -187 582 -344 844 -55 92 -189 285 -223 321 -7 8 -41
47 -77 88 -35 41 -68 77 -72 80 -4 4 -43 40 -85 81 -91 88 -198 174 -303 243
-41 27 -87 57 -101 67 -50 34 -235 122 -344 164 -91 35 -266 87 -334 100 -18
3 -145 24 -188 31 -38 6 -439 14 -445 9z m-2539 -1552 c104 -82 150 -88 229
-29 l52 38 -60 -120 c-33 -66 -60 -125 -60 -130 0 -5 -11 -17 -25 -26 -15 -10
-25 -26 -25 -40 0 -16 -26 -47 -91 -107 -100 -92 -109 -98 -109 -76 0 22 -48
57 -76 57 -13 0 -24 3 -24 8 0 8 -51 71 -100 122 -43 46 -83 72 -129 85 -30 9
-37 17 -48 55 -21 71 -23 90 -11 115 22 48 56 37 91 -30 9 -16 16 -27 17 -22
0 4 -1 8 -2 10 -1 1 4 12 10 24 16 30 64 39 99 18 35 -21 87 -92 90 -125 11
-99 24 -140 58 -192 28 -41 42 -48 47 -20 8 36 -13 105 -55 186 -24 46 -43 94
-41 107 1 13 3 33 3 44 1 11 10 35 22 54 19 31 23 33 61 28 22 -3 56 -18 77
-34z m-115 -246 c28 -63 43 -133 26 -122 -16 10 -51 90 -57 129 -2 17 -6 37
-8 44 -12 34 18 -5 39 -51z m-309 -48 c20 -33 64 -89 96 -123 50 -54 58 -68
57 -99 -1 -40 24 -87 48 -87 25 0 -2 -28 -44 -46 -82 -34 -191 -14 -253 47
-22 21 -44 50 -49 64 -25 65 1 136 54 155 l30 10 -22 16 c-22 15 -30 66 -14
90 7 11 42 33 53 34 3 0 23 -27 44 -61z m38 47 c38 -16 177 -156 177 -179 0
-3 -11 -12 -25 -21 -24 -16 -26 -15 -61 16 -57 52 -156 198 -134 198 6 0 25
-6 43 -14z m472 -204 c-14 -50 -28 -104 -31 -119 -20 -109 -31 -214 -33 -312
-2 -101 -4 -117 -23 -136 -20 -20 -23 -21 -50 -7 -56 27 -118 -1 -133 -61 -8
-31 10 -83 31 -91 20 -8 18 -19 -20 -99 -19 -40 -60 -147 -92 -239 -61 -179
-79 -206 -130 -194 -39 10 -55 65 -59 206 -5 195 27 372 98 548 57 142 185
344 227 357 11 4 29 23 40 44 10 21 54 69 96 107 43 38 82 74 88 80 6 7 12 11
14 9 2 -1 -9 -43 -23 -93z m-1069 -128 c64 -68 106 -197 129 -394 18 -159 34
-271 40 -280 3 -5 2 -10 -2 -10 -8 0 -21 42 -48 153 -2 10 -9 32 -14 50 -6 18
-26 86 -45 153 -37 133 -66 198 -92 208 -14 5 -16 0 -11 -41 9 -71 15 -99 44
-198 33 -116 50 -157 118 -299 31 -64 55 -121 53 -127 -5 -15 -98 120 -141
206 -73 144 -123 299 -142 440 -24 172 24 233 111 139z m31 -286 c18 -62 36
-124 39 -137 8 -38 53 -192 60 -202 3 -5 2 -9 -1 -9 -27 0 -155 388 -155 470
0 36 25 -17 57 -122z m964 -200 c-4 -42 -4 -42 -13 -15 -7 19 -6 32 2 42 7 8
13 15 14 15 1 0 0 -19 -3 -42z m-15 -104 c-4 -15 -14 -33 -22 -42 -42 -42
-130 -159 -176 -234 -55 -92 -55 -81 3 67 59 149 78 179 116 183 17 2 42 14
55 27 30 30 31 30 24 -1z m-16 -89 c-9 -42 -167 -269 -242 -350 -19 -20 20 61
66 139 41 69 171 246 180 246 2 0 0 -16 -4 -35z m-30 -151 c-21 -66 -91 -165
-166 -236 -26 -24 -82 -53 -90 -46 -1 2 22 33 52 68 30 36 92 115 137 176 45
62 84 110 86 109 2 -2 -7 -34 -19 -71z"/>
<path d="M2075 5641 c-45 -13 -68 -39 -70 -78 -5 -77 66 -124 133 -89 99 51
43 198 -63 167z"/>
<path d="M1338 5554 c-51 -27 -53 -115 -5 -149 50 -35 139 -3 152 54 7 34 -15
85 -44 101 -27 14 -71 12 -103 -6z"/>
<path d="M585 5525 c-14 -13 -25 -30 -26 -37 0 -7 -2 -20 -4 -30 -5 -26 32
-77 61 -84 15 -4 43 -3 63 2 68 17 86 110 30 157 -32 26 -94 22 -124 -8z"/>
<path d="M2325 5260 c-70 -26 -79 -131 -13 -163 64 -31 134 5 142 72 7 63 -66
114 -129 91z"/>
<path d="M2729 5255 c-64 -35 -54 -145 15 -164 68 -18 126 23 126 89 0 70 -76
110 -141 75z"/>
<path d="M1108 5104 c-24 -12 -39 -41 -43 -79 -2 -19 25 -64 44 -75 60 -32
141 8 143 70 3 83 -70 125 -144 84z"/>
<path d="M1882 5100 c-57 -53 11 -141 83 -108 39 17 47 76 15 108 -26 26 -70
26 -98 0z"/>
<path d="M272 5078 c-78 -21 -88 -134 -15 -167 51 -23 114 -1 130 46 27 76
-36 142 -115 121z"/>
<path d="M703 4900 c-56 -23 -69 -114 -22 -152 35 -29 95 -23 131 12 26 27 29
35 24 68 -12 66 -70 97 -133 72z"/>
<path d="M1687 4864 c-52 -28 -63 -94 -23 -141 19 -22 32 -28 65 -28 77 0 120
73 83 142 -19 36 -82 49 -125 27z"/>
<path d="M2180 4851 c-14 -4 -35 -21 -47 -39 -17 -27 -20 -38 -12 -64 18 -66
73 -90 136 -60 67 32 65 130 -3 158 -36 15 -37 15 -74 5z"/>
<path d="M1215 4646 c-72 -31 -66 -141 9 -166 27 -9 42 -8 69 4 65 26 78 97
28 147 -32 32 -59 35 -106 15z"/>
<path d="M258 4452 c-14 -2 -38 -15 -52 -29 -37 -36 -35 -85 3 -124 35 -34 72
-37 118 -9 50 30 56 92 15 135 -24 25 -45 32 -84 27z"/>
<path d="M810 4443 c-63 -23 -82 -109 -35 -153 51 -48 145 -19 158 47 13 70
-56 130 -123 106z"/>
<path d="M1560 4403 c-62 -23 -81 -103 -35 -148 23 -24 44 -30 90 -26 30 3 76
57 71 84 -3 12 -5 30 -5 40 -2 34 -78 66 -121 50z"/>
<path d="M1890 4303 c-60 -19 -87 -59 -75 -111 12 -58 79 -86 135 -57 62 32
66 119 7 155 -33 20 -41 22 -67 13z"/>
<path d="M524 4101 c-69 -30 -72 -131 -6 -165 39 -19 83 -10 115 25 25 27 28
37 22 68 -3 20 -14 44 -24 54 -20 21 -77 30 -107 18z"/>
<path d="M988 4037 c-34 -28 -42 -59 -29 -100 30 -88 180 -69 181 23 0 44 -11
66 -40 83 -39 23 -80 21 -112 -6z"/>
<path d="M408 3776 c-39 -26 -52 -72 -31 -115 15 -31 30 -40 75 -48 34 -5 85
23 94 52 30 92 -59 164 -138 111z"/>
<path d="M1094 3143 c-63 -12 -86 -96 -41 -148 18 -21 32 -27 66 -28 37 -1 48
4 72 31 29 32 31 48 14 102 -7 21 -54 51 -77 49 -7 -1 -23 -4 -34 -6z"/>
<path d="M1443 2388 c-91 -23 -85 -157 7 -173 95 -16 151 81 88 151 -24 27
-52 33 -95 22z"/>
</g>
</svg>
